<svg xmlns="http://www.w3.org/2000/svg" width="218" height="50.653" viewBox="0 0 218 50.653">
  <g id="Group_12" data-name="Group 12" transform="translate(-211 -2173.347)">
    <text id="КОРПУСНІ_МЕБЛІ_НА_ЗАМОВЛЕННЯ" data-name="КОРПУСНІ МЕБЛІ НА ЗАМОВЛЕННЯ" transform="translate(211 2221)" fill="#fff" font-size="11" font-family="OpenSans, Open Sans" letter-spacing="0.1em"><tspan x="0" y="0">КОРПУСНІ МЕБЛІ НА ЗАМОВЛЕННЯ</tspan></text>
    <g id="візитки-03" transform="translate(211 2173.347)">
      <g id="Group_1" data-name="Group 1" transform="translate(0)">
        <path id="Path_1" data-name="Path 1" d="M4.5,4.789a.312.312,0,0,1,.29-.29h.29c.145,0,.29.145.435.29l6.095,13.641a13.484,13.484,0,0,0,.726,1.451l.726.726a2.339,2.339,0,0,0,1.016.58,4.018,4.018,0,0,0,1.306.145h1.451a3.6,3.6,0,0,0,1.306-.145,2.339,2.339,0,0,0,1.016-.58l.871-.871a13.484,13.484,0,0,0,.726-1.451L26.846,4.644c0-.145.145-.29.435-.29h.29a.312.312,0,0,1,.29.29V20.461a.685.685,0,0,0,.726.726h3.047a.685.685,0,0,0,.726-.726V3.047A3.63,3.63,0,0,0,31.78.58,3.916,3.916,0,0,0,29.6,0H26.411A2.829,2.829,0,0,0,25.25.145a2.062,2.062,0,0,0-.871.29c-.29.145-.435.435-.726.726a8.616,8.616,0,0,0-.58,1.161L16.688,16.978c-.145.145-.29.29-.435.29h-.29c-.145,0-.29-.145-.435-.29L9.287,2.322a8.556,8.556,0,0,1-.58-1.161c-.29-.29-.435-.58-.726-.726a1.227,1.227,0,0,0-.871-.29A2.5,2.5,0,0,0,5.95,0H2.757C1.6,0,.871.29.58.726A3.63,3.63,0,0,0,0,3.192V27.426a.754.754,0,0,0,.29.58v.145H161.076V24.669H4.5Z" transform="translate(0)" fill="#fff"/>
        <path id="Path_2" data-name="Path 2" d="M25.471,18.872a4.539,4.539,0,0,0,1.451.726,8.783,8.783,0,0,0,2.177.29H43.61a2.829,2.829,0,0,0,1.161-.145.8.8,0,0,0,.726-.435,3.173,3.173,0,0,0,.435-.726c0-.29.145-.726.145-1.161V9.295a7.314,7.314,0,0,0-.435-2.757,4.167,4.167,0,0,0-1.161-1.886A7.691,7.691,0,0,0,42.3,3.49a11.96,11.96,0,0,0-3.483-.29H25.761c-.435,0-.58.145-.58.58V6.392c0,.435.145.58.58.58h12.48a4.964,4.964,0,0,1,1.6.145,7.075,7.075,0,0,1,1.016.435,1.333,1.333,0,0,1,.58.871,3.221,3.221,0,0,1,.145,1.306v.58H29.244a8.783,8.783,0,0,0-2.177.29,4.539,4.539,0,0,0-1.451.726,1.954,1.954,0,0,0-.726,1.306,5.412,5.412,0,0,0-.29,1.741v1.451a6.44,6.44,0,0,0,.29,1.886C24.745,18,25.035,18.437,25.471,18.872Zm3.192-4.644a1.648,1.648,0,0,1,.435-1.161,1.774,1.774,0,0,1,1.306-.435H41.578v2.612c0,.435,0,.726-.145.871a.853.853,0,0,1-.726.29H30.4A1.774,1.774,0,0,1,29.1,15.97a1.648,1.648,0,0,1-.435-1.161Z" transform="translate(11.098 1.444)" fill="#fff"/>
        <path id="Path_3" data-name="Path 3" d="M42.126,19.933h3.047a.685.685,0,0,0,.726-.726V13.113h4.353a5.685,5.685,0,0,1,1.886.29A2.581,2.581,0,0,1,53.3,14.419L57.072,19.5l.29.29c.145,0,.29.145.58.145h3.483c.29,0,.435-.145.435-.29a.533.533,0,0,0-.145-.435l-4.353-5.8a7.267,7.267,0,0,0-1.016-1.161,8.05,8.05,0,0,0-1.161-.871,11.561,11.561,0,0,0,1.886-1.886L60.99,4.116a1.308,1.308,0,0,0,.145-.726c0-.145-.29-.29-.435-.29H57.362c-.29,0-.435,0-.58.145s-.29.145-.435.435L53.009,8.469c-.29.29-.435.58-.58.726s-.435.29-.58.435a1.308,1.308,0,0,1-.726.145H45.9V3.826a.685.685,0,0,0-.726-.726H42.126a.685.685,0,0,0-.726.726V19.208C41.545,19.643,41.69,19.933,42.126,19.933Z" transform="translate(18.677 1.399)" fill="#fff"/>
        <path id="Path_4" data-name="Path 4" d="M57.841,18.482A5.049,5.049,0,0,0,60.018,19.5a11.96,11.96,0,0,0,3.483.29H75.69c.435,0,.58-.145.58-.58V16.6c0-.435-.145-.58-.58-.58H63.936a4.963,4.963,0,0,1-1.6-.145,2.223,2.223,0,0,1-1.6-1.6,5.441,5.441,0,0,1-.145-1.6V10.211a5.441,5.441,0,0,1,.145-1.6,2.339,2.339,0,0,1,.58-1.016,1.332,1.332,0,0,1,.871-.58,5.441,5.441,0,0,1,1.6-.145H75.545c.435,0,.58-.145.58-.58V3.68c0-.435-.145-.58-.58-.58H63.356a24.077,24.077,0,0,0-3.483.29A5.233,5.233,0,0,0,57.7,4.551a3.226,3.226,0,0,0-1.161,1.886A7.854,7.854,0,0,0,56.1,9.195v4.353a7.314,7.314,0,0,0,.435,2.757A4.612,4.612,0,0,0,57.841,18.482Z" transform="translate(25.308 1.399)" fill="#fff"/>
        <path id="Path_5" data-name="Path 5" d="M74.847,19.888h1.6a3.221,3.221,0,0,0,1.306-.145,2.063,2.063,0,0,0,.871-.29,2.548,2.548,0,0,0,.726-.58c.29-.29.435-.58.726-.871L89.214,7.263c.145,0,.29-.145.435-.145h.29a.312.312,0,0,1,.29.29V19.162a.685.685,0,0,0,.726.726h2.9a.685.685,0,0,0,.726-.726V6.392a3.314,3.314,0,0,0-.726-2.467A2.871,2.871,0,0,0,91.826,3.2H90.084a3.221,3.221,0,0,0-1.306.145,1.556,1.556,0,0,0-.871.29,1.449,1.449,0,0,0-.726.58,3.846,3.846,0,0,0-.871.726L77.169,15.68c-.145.145-.145.145-.435.145h-.29a.312.312,0,0,1-.29-.29V3.926a.686.686,0,0,0-.726-.726h-2.9a.685.685,0,0,0-.726.726V16.7a3.314,3.314,0,0,0,.726,2.467A3.692,3.692,0,0,0,74.847,19.888Z" transform="translate(32.391 1.444)" fill="#fff"/>
        <path id="Path_6" data-name="Path 6" d="M90.916,19.888h3.047a.685.685,0,0,0,.726-.726V7.118a.312.312,0,0,1,.29-.29h.58l.145.145,4.934,9.868a13.42,13.42,0,0,1,.726,1.451c.29.435.435.726.726.871a3.036,3.036,0,0,0,.871.58,3.221,3.221,0,0,0,1.306.145h1.306a4.018,4.018,0,0,0,1.306-.145c.29-.145.726-.29.871-.58a3.848,3.848,0,0,0,.726-.871,13.484,13.484,0,0,0,.726-1.451l4.934-9.868a.142.142,0,0,1,.145-.145h.58a.312.312,0,0,1,.29.29V19.162a.686.686,0,0,0,.726.726h3.047a.685.685,0,0,0,.726-.726V6.392a4.474,4.474,0,0,0-.145-1.451,7.074,7.074,0,0,0-.435-1.016,1.333,1.333,0,0,0-.871-.58,3.221,3.221,0,0,0-1.306-.145h-3.047a2.829,2.829,0,0,0-1.161.145,1.254,1.254,0,0,0-.871.435,1.449,1.449,0,0,0-.58.726,13.385,13.385,0,0,1-.726,1.161L105.427,15.68c-.145.145-.29.29-.435.29h-.435c-.145,0-.29-.145-.435-.29L99.042,5.667a8.1,8.1,0,0,0-.726-1.161,3.166,3.166,0,0,0-.58-.726,4.832,4.832,0,0,0-.871-.435c-.29,0-.726-.145-1.161-.145H92.657a3.221,3.221,0,0,0-1.306.145,3.036,3.036,0,0,0-.871.58,7.075,7.075,0,0,0-.435,1.016A4.474,4.474,0,0,0,89.9,6.392v12.77C90.19,19.6,90.335,19.888,90.916,19.888Z" transform="translate(40.557 1.444)" fill="#fff"/>
        <path id="Path_7" data-name="Path 7" d="M135.7,3.435c0-.145-.29-.29-.435-.29h-3.338a.8.8,0,0,0-.726.435L124.09,15.915c-.145,0-.29,0-.29-.145a2,2,0,0,1-.435-.58l-6.82-11.754A.8.8,0,0,0,115.818,3h-3.483c-.29,0-.435.145-.435.29v.58l8.271,14.221c.29.435.435.726.726.871a10,10,0,0,0,1.161.435l-1.6,2.9a1.7,1.7,0,0,1-1.6.726h-1.741c-.435,0-.58.145-.58.58v2.467c0,.435.145.58.58.58H119.3a8.478,8.478,0,0,0,3.047-.435,3.692,3.692,0,0,0,1.741-1.6L135.7,4.016C135.844,3.726,135.844,3.58,135.7,3.435Z" transform="translate(50.482 1.353)" fill="#fff"/>
        <path id="Path_8" data-name="Path 8" d="M130.661,19.888h3.047a.685.685,0,0,0,.726-.726V7.118a.312.312,0,0,1,.29-.29h.58l.145.145,4.934,9.868a13.426,13.426,0,0,1,.726,1.451c.29.435.435.726.726.871a3.035,3.035,0,0,0,.871.58,3.221,3.221,0,0,0,1.306.145h1.306a4.017,4.017,0,0,0,1.306-.145c.29-.145.726-.29.871-.58a3.847,3.847,0,0,0,.726-.871,13.481,13.481,0,0,0,.726-1.451l4.934-9.868a.142.142,0,0,1,.145-.145h.58a.312.312,0,0,1,.29.29V19.162a.685.685,0,0,0,.726.726h3.047a.686.686,0,0,0,.726-.726V6.392a4.472,4.472,0,0,0-.145-1.451,7.075,7.075,0,0,0-.435-1.016,1.333,1.333,0,0,0-.871-.58,3.221,3.221,0,0,0-1.306-.145h-3.192a2.829,2.829,0,0,0-1.161.145,1.254,1.254,0,0,0-.871.435,1.449,1.449,0,0,0-.58.726,13.383,13.383,0,0,1-.726,1.161L145.027,15.68c-.145.145-.29.29-.435.29h-.435c-.145,0-.29-.145-.435-.29L138.642,5.667a8.1,8.1,0,0,0-.726-1.161,3.167,3.167,0,0,0-.58-.726,4.832,4.832,0,0,0-.871-.435c-.29,0-.726-.145-1.161-.145h-3.047a3.221,3.221,0,0,0-1.306.145,3.036,3.036,0,0,0-.871.58,7.071,7.071,0,0,0-.435,1.016,4.473,4.473,0,0,0-.145,1.451v12.77C129.935,19.6,130.08,19.888,130.661,19.888Z" transform="translate(58.422 1.444)" fill="#fff"/>
        <path id="Path_9" data-name="Path 9" d="M125.786,16.9,123.9,20.383h37.875V16.9Z" transform="translate(55.895 7.624)" fill="#fff"/>
      </g>
    </g>
  </g>
</svg>
