<?xml version="1.0" encoding="utf-8"?>
<!-- Generator: Adobe Illustrator 22.0.1, SVG Export Plug-In . SVG Version: 6.00 Build 0)  -->
<svg version="1.1" id="Слой_1" xmlns="http://www.w3.org/2000/svg" xmlns:xlink="http://www.w3.org/1999/xlink" x="0px" y="0px"
	 viewBox="0 0 150 19.3" style="enable-background:new 0 0 150 19.3;" xml:space="preserve">
<style type="text/css">
	.st0{fill:#EFEEEE;}
</style>
<g id="Слой_1_1_">
	<g>
		<path class="st0" d="M3.1,3.3c0-0.1,0.1-0.2,0.2-0.2h0.2c0.1,0,0.2,0.1,0.3,0.2L8,12.7c0.2,0.4,0.3,0.7,0.5,1
			C8.6,13.8,8.8,14,9,14.2s0.4,0.3,0.7,0.4c0.3,0.1,0.6,0.1,0.9,0.1h1c0.3,0,0.7,0,0.9-0.1c0.3-0.1,0.5-0.2,0.7-0.4s0.4-0.4,0.6-0.6
			c0.2-0.3,0.3-0.6,0.5-1l4.2-9.4c0-0.1,0.1-0.2,0.3-0.2H19c0.1,0,0.2,0.1,0.2,0.2v10.9c0,0.3,0.2,0.5,0.5,0.5h2.1
			c0.3,0,0.5-0.2,0.5-0.5v-12c0-0.8-0.1-1.4-0.4-1.7C21.6,0.2,21.1,0,20.4,0h-2.2c-0.3,0-0.6,0-0.8,0.1c-0.2,0-0.4,0.1-0.6,0.2
			s-0.3,0.3-0.5,0.5C16.2,1,16,1.3,15.9,1.6l-4.4,10.1c-0.1,0.1-0.2,0.2-0.3,0.2H11c-0.1,0-0.2-0.1-0.3-0.2L6.4,1.6
			C6.2,1.3,6.1,1,6,0.8C5.8,0.6,5.7,0.4,5.5,0.3C5.4,0.2,5.2,0.1,4.9,0.1C4.7,0,4.5,0,4.1,0H1.9C1.1,0,0.6,0.2,0.4,0.5
			C0.1,0.8,0,1.4,0,2.2v16.7c0,0.2,0.1,0.3,0.2,0.4v0.1H111V17H3.1V3.3z"/>
		<path class="st0" d="M25.2,14c0.3,0.2,0.6,0.4,1,0.5s0.9,0.2,1.5,0.2h10c0.3,0,0.6,0,0.8-0.1c0.2,0,0.4-0.1,0.5-0.3
			c0.1-0.1,0.2-0.3,0.3-0.5c0-0.2,0.1-0.5,0.1-0.8V7.4c0-0.8-0.1-1.4-0.3-1.9s-0.4-1-0.8-1.3c-0.4-0.3-0.9-0.6-1.5-0.8
			s-1.4-0.2-2.4-0.2h-9c-0.3,0-0.4,0.1-0.4,0.4v1.8c0,0.3,0.1,0.4,0.4,0.4H34c0.5,0,0.8,0,1.1,0.1s0.5,0.2,0.7,0.3
			c0.2,0.1,0.3,0.3,0.4,0.6c0.1,0.2,0.1,0.5,0.1,0.9v0.4h-8.5c-0.6,0-1.1,0.1-1.5,0.2c-0.4,0.1-0.7,0.3-1,0.5s-0.4,0.5-0.5,0.9
			c-0.1,0.3-0.2,0.7-0.2,1.2v1c0,0.5,0.1,1,0.2,1.3C24.7,13.4,24.9,13.7,25.2,14z M27.4,10.8c0-0.3,0.1-0.6,0.3-0.8
			c0.2-0.2,0.5-0.3,0.9-0.3h7.7v1.8c0,0.3,0,0.5-0.1,0.6s-0.2,0.2-0.5,0.2h-7.1c-0.4,0-0.7-0.1-0.9-0.3c-0.2-0.2-0.3-0.5-0.3-0.8
			C27.4,11.2,27.4,10.8,27.4,10.8z"/>
		<path class="st0" d="M41.9,14.7H44c0.3,0,0.5-0.2,0.5-0.5V10h3c0.6,0,1,0.1,1.3,0.2c0.3,0.1,0.6,0.4,0.8,0.7l2.6,3.5
			c0.1,0.1,0.2,0.2,0.2,0.2c0.1,0,0.2,0.1,0.4,0.1h2.4c0.2,0,0.3-0.1,0.3-0.2c0-0.1,0-0.2-0.1-0.3l-3-4c-0.2-0.3-0.4-0.5-0.7-0.8
			c-0.2-0.2-0.5-0.4-0.8-0.6c0.4-0.3,0.9-0.8,1.3-1.3l2.7-3.7C55,3.6,55,3.5,55,3.3c0-0.1-0.2-0.2-0.3-0.2h-2.3
			c-0.2,0-0.3,0-0.4,0.1c-0.1,0.1-0.2,0.1-0.3,0.3l-2.3,3.3C49.2,7,49.1,7.2,49,7.3c-0.1,0.1-0.3,0.2-0.4,0.3
			c-0.2,0.1-0.3,0.1-0.5,0.1s-0.5,0-0.8,0h-2.8V3.6c0-0.3-0.2-0.5-0.5-0.5h-2.1c-0.3,0-0.5,0.2-0.5,0.5v10.6
			C41.5,14.5,41.6,14.7,41.9,14.7z"/>
		<path class="st0" d="M57.3,13.7c0.4,0.3,0.9,0.6,1.5,0.7c0.6,0.2,1.4,0.2,2.4,0.2h8.4c0.3,0,0.4-0.1,0.4-0.4v-1.8
			c0-0.3-0.1-0.4-0.4-0.4h-8.1c-0.5,0-0.8,0-1.1-0.1s-0.5-0.2-0.7-0.4s-0.3-0.4-0.4-0.7c-0.1-0.3-0.1-0.7-0.1-1.1V8
			c0-0.4,0-0.8,0.1-1.1c0.1-0.3,0.2-0.5,0.4-0.7C59.8,6,60,5.9,60.3,5.8s0.7-0.1,1.1-0.1h8.1c0.3,0,0.4-0.1,0.4-0.4V3.5
			c0-0.3-0.1-0.4-0.4-0.4h-8.4c-0.9,0-1.7,0.1-2.4,0.2c-0.6,0.2-1.1,0.4-1.5,0.8c-0.4,0.3-0.7,0.8-0.8,1.3c-0.2,0.5-0.3,1.2-0.3,1.9
			v3c0,0.8,0.1,1.4,0.3,1.9C56.6,12.9,56.9,13.3,57.3,13.7z"/>
		<path class="st0" d="M73.9,14.7H75c0.4,0,0.7,0,0.9-0.1c0.2,0,0.4-0.1,0.6-0.2c0.2-0.1,0.3-0.2,0.5-0.4s0.3-0.4,0.5-0.6L83.8,6
			c0.1,0,0.2-0.1,0.3-0.1h0.2c0.1,0,0.2,0.1,0.2,0.2v8.1c0,0.3,0.2,0.5,0.5,0.5h2c0.3,0,0.5-0.2,0.5-0.5V5.4c0-0.9-0.2-1.4-0.5-1.7
			s-0.8-0.5-1.4-0.5h-1.2c-0.4,0-0.7,0-0.9,0.1c-0.2,0-0.5,0.1-0.6,0.2c-0.2,0.1-0.4,0.2-0.5,0.4C82.2,4,82,4.2,81.8,4.4l-6.3,7.4
			c-0.1,0.1-0.1,0.1-0.3,0.1H75c-0.1,0-0.2-0.1-0.2-0.2v-8c0-0.3-0.2-0.5-0.5-0.5h-2c-0.3,0-0.5,0.2-0.5,0.5v8.8
			c0,0.9,0.2,1.4,0.5,1.7C72.7,14.5,73.2,14.7,73.9,14.7z"/>
		<path class="st0" d="M90.6,14.7h2.1c0.3,0,0.5-0.2,0.5-0.5V5.9c0-0.1,0.1-0.2,0.2-0.2h0.2c0.1,0,0.1,0,0.2,0l0.1,0.1l3.4,6.8
			c0.2,0.4,0.4,0.7,0.5,1c0.2,0.3,0.3,0.5,0.5,0.6c0.2,0.2,0.4,0.3,0.6,0.4c0.2,0.1,0.5,0.1,0.9,0.1h0.9c0.3,0,0.6,0,0.9-0.1
			c0.2-0.1,0.5-0.2,0.6-0.4c0.2-0.2,0.4-0.4,0.5-0.6c0.2-0.3,0.3-0.6,0.5-1l3.4-6.8c0-0.1,0.1-0.1,0.1-0.1s0.1,0,0.2,0h0.2
			c0.1,0,0.2,0.1,0.2,0.2v8.3c0,0.3,0.2,0.5,0.5,0.5h2.1c0.3,0,0.5-0.2,0.5-0.5V5.4c0-0.4,0-0.7-0.1-1s-0.2-0.5-0.3-0.7
			c-0.1-0.2-0.3-0.3-0.6-0.4c-0.2-0.1-0.5-0.1-0.9-0.1h-2.1c-0.3,0-0.6,0-0.8,0.1c-0.2,0-0.4,0.1-0.6,0.3c-0.2,0.1-0.3,0.3-0.4,0.5
			c-0.1,0.2-0.3,0.5-0.5,0.8l-3.5,6.9c-0.1,0.1-0.2,0.2-0.3,0.2H100c-0.1,0-0.2-0.1-0.3-0.2l-3.5-6.9c-0.2-0.3-0.3-0.6-0.5-0.8
			c-0.1-0.2-0.3-0.4-0.4-0.5c-0.2-0.1-0.3-0.2-0.6-0.3c-0.2,0-0.5-0.1-0.8-0.1h-2.1c-0.4,0-0.7,0-0.9,0.1c-0.2,0.1-0.4,0.2-0.6,0.4
			c-0.1,0.2-0.2,0.4-0.3,0.7c-0.1,0.3-0.1,0.6-0.1,1v8.8C90.1,14.5,90.2,14.7,90.6,14.7z"/>
		<path class="st0" d="M128.3,3.3c0-0.1-0.2-0.2-0.3-0.2h-2.3c-0.2,0-0.4,0.1-0.5,0.3l-4.9,8.5c-0.1,0-0.2,0-0.2-0.1
			c-0.1-0.1-0.2-0.2-0.3-0.4l-4.7-8.1C115,3.1,114.8,3,114.6,3h-2.4c-0.2,0-0.3,0.1-0.3,0.2c0,0.1,0,0.2,0,0.4l5.7,9.8
			c0.2,0.3,0.3,0.5,0.5,0.6s0.5,0.2,0.8,0.3l-1.1,2c-0.2,0.3-0.5,0.5-1.1,0.5h-1.2c-0.3,0-0.4,0.1-0.4,0.4v1.7
			c0,0.3,0.1,0.4,0.4,0.4h1.5c0.9,0,1.6-0.1,2.1-0.3c0.5-0.2,0.9-0.6,1.2-1.1l8-14.2C128.4,3.5,128.4,3.4,128.3,3.3z"/>
		<path class="st0" d="M130.3,14.7h2.1c0.3,0,0.5-0.2,0.5-0.5V5.9c0-0.1,0.1-0.2,0.2-0.2h0.2c0.1,0,0.1,0,0.2,0l0.1,0.1l3.4,6.8
			c0.2,0.4,0.4,0.7,0.5,1c0.2,0.3,0.3,0.5,0.5,0.6c0.2,0.2,0.4,0.3,0.6,0.4c0.2,0.1,0.5,0.1,0.9,0.1h0.9c0.3,0,0.6,0,0.9-0.1
			c0.2-0.1,0.5-0.2,0.6-0.4c0.2-0.2,0.4-0.4,0.5-0.6c0.2-0.3,0.3-0.6,0.5-1l3.4-6.8c0-0.1,0.1-0.1,0.1-0.1s0.1,0,0.2,0h0.2
			c0.1,0,0.2,0.1,0.2,0.2v8.3c0,0.3,0.2,0.5,0.5,0.5h2.1c0.3,0,0.5-0.2,0.5-0.5V5.4c0-0.4,0-0.7-0.1-1s-0.2-0.5-0.3-0.7
			s-0.3-0.3-0.6-0.4c-0.2-0.1-0.5-0.1-0.9-0.1H146c-0.3,0-0.6,0-0.8,0.1c-0.2,0-0.4,0.1-0.6,0.3c-0.2,0.1-0.3,0.3-0.4,0.5
			c-0.1,0.2-0.3,0.5-0.5,0.8l-3.5,6.9c-0.1,0.1-0.2,0.2-0.3,0.2h-0.3c-0.1,0-0.2-0.1-0.3-0.2l-3.5-6.9c-0.2-0.3-0.3-0.6-0.5-0.8
			c-0.1-0.2-0.3-0.4-0.4-0.5c-0.2-0.1-0.3-0.2-0.6-0.3c-0.2,0-0.5-0.1-0.8-0.1h-2.1c-0.4,0-0.7,0-0.9,0.1s-0.4,0.2-0.6,0.4
			c-0.1,0.2-0.2,0.4-0.3,0.7s-0.1,0.6-0.1,1v8.8C129.8,14.5,129.9,14.7,130.3,14.7z"/>
		<polygon class="st0" points="125.2,16.9 123.9,19.3 150,19.3 150,16.9 		"/>
	</g>
</g>
<g id="Слой_2_1_">
</g>
</svg>
