<svg xmlns="http://www.w3.org/2000/svg" width="234.43" height="59.856" viewBox="0 0 234.43 59.856">
  <g id="Group_1169" data-name="Group 1169" transform="translate(2778.878 -699.977)">
    <path id="Path_1810" data-name="Path 1810" d="M-581.189,701.325a4.522,4.522,0,0,0-3.256-1.349,4.528,4.528,0,0,0-3.256,1.349,4.537,4.537,0,0,0-1.35,3.257,4.535,4.535,0,0,0,1.35,3.257,4.537,4.537,0,0,0,3.256,1.349,4.531,4.531,0,0,0,3.256-1.349,4.531,4.531,0,0,0,1.35-3.257A4.525,4.525,0,0,0-581.189,701.325Zm-.427,6.087a3.933,3.933,0,0,1-2.829,1.172,3.939,3.939,0,0,1-2.829-1.172,3.933,3.933,0,0,1-1.17-2.829,3.936,3.936,0,0,1,1.17-2.829,3.939,3.939,0,0,1,2.829-1.172,3.93,3.93,0,0,1,2.829,1.172,3.929,3.929,0,0,1,1.172,2.829A3.932,3.932,0,0,1-581.616,707.412Z" transform="translate(-1964.609 0)" fill="#e66406"/>
    <path id="Path_1811" data-name="Path 1811" d="M-561.879,725.622c-.031-.341-.059-.651-.085-.992a2.523,2.523,0,0,0-.055-.36.915.915,0,0,0-.68-.69,1.008,1.008,0,0,0,.5-.291,1.359,1.359,0,0,0,.364-1.163,1.2,1.2,0,0,0-.584-.875,1.711,1.711,0,0,0-.93-.261H-566.3v4.889h1.517V724.17h.8a.48.48,0,0,1,.334.135.485.485,0,0,1,.156.327q.034.456.088.91a.712.712,0,0,0,.117.336h1.522A.437.437,0,0,1-561.879,725.622Zm-1.945-2.574h-.95v-.932h.948a.467.467,0,0,1,.466.427c0,.011,0,.021,0,.032A.47.47,0,0,1-563.824,723.047Z" transform="translate(-1985.019 -18.851)" fill="#e66406"/>
    <path id="Path_1812" data-name="Path 1812" d="M-2775.825,882.09l9.66-24.193a1.911,1.911,0,0,1,1.33-1.211,1.913,1.913,0,0,1,1.749.415,41.563,41.563,0,0,1,3.232,2.819.969.969,0,0,0,1.173.136.97.97,0,0,0,.423-1.1c-.4-6.017-.815-11.481-1.327-17.488a1.229,1.229,0,0,0-.818-.946,1.224,1.224,0,0,0-1.223.253l-13.11,12.13a.8.8,0,0,0-.051,1.133.8.8,0,0,0,.7.253,19.821,19.821,0,0,0,3.875.088,2.5,2.5,0,0,1,2.026,1.031,2.507,2.507,0,0,1,.378,2.244l-9.656,24.432-1.414.177,9.447-24.48a1.435,1.435,0,0,0-.151-1.342,1.424,1.424,0,0,0-1.2-.631,38.369,38.369,0,0,0-4.128-.065,1.988,1.988,0,0,1-1.78-1.269,1.993,1.993,0,0,1,.451-2.14l13.88-12.976a2.488,2.488,0,0,1,2.628-.607,2.485,2.485,0,0,1,1.642,2.138c.412,6.463.848,12.333,1.4,18.786a2.138,2.138,0,0,1-.991,2.1,2.142,2.142,0,0,1-2.321-.031,22.544,22.544,0,0,1-3.481-3.023,1.029,1.029,0,0,0-1.453-.076,1.033,1.033,0,0,0-.232.306,215.481,215.481,0,0,0-9.188,23.155l-1.47-.017Z" transform="translate(0 -124.371)" fill="#e66406"/>
    <g id="Group_1168" data-name="Group 1168" transform="translate(-2758.146 701.666)">
      <path id="Path_1813" data-name="Path 1813" d="M-2577.3,1265.838h0Z" transform="translate(2577.302 -1209.328)" fill="#e66406"/>
      <path id="Path_1814" data-name="Path 1814" d="M-2518.687,740.12c-.808-5.2-4.783-8.542-10.671-8.963-5.494-.424-11.39,1.081-17.208,4.391l7.428-19.151h-16.24l-21.918,56.508h16.23l1.33-3.425c2.795,3.723,7.5,5.484,13.383,5.007,6.307-.574,12.856-3.952,17.776-9.171C-2521.032,757.4-2517.373,748.076-2518.687,740.12Zm-12.589,6.927a18.542,18.542,0,0,1-3.835,9.89,17.051,17.051,0,0,1-4.155,3.983,9.835,9.835,0,0,1-5.469,1.845,4.649,4.649,0,0,1-4.036-1.845,6.183,6.183,0,0,1-1.088-3.97,17.6,17.6,0,0,1,3.857-9.9,17.088,17.088,0,0,1,4.155-3.983,9.867,9.867,0,0,1,5.461-1.829,4.692,4.692,0,0,1,4.045,1.823A6.3,6.3,0,0,1-2531.276,747.047Z" transform="translate(2577.298 -716.398)" fill="#e66406"/>
    </g>
    <path id="Path_1815" data-name="Path 1815" d="M-2071.481,772.908l21.919-56.51h16.894l-21.919,56.51Z" transform="translate(-634.642 -14.732)" fill="#e66406"/>
    <path id="Path_1816" data-name="Path 1816" d="M-1786.694,875.148l-15.588,40.184h-15.907l1.509-3.89a23.622,23.622,0,0,1-6.835,3.682c-5.661,1.847-10.842,1.919-15.175.208-4.927-1.941-6.679-7.208-4.338-13.047l10.526-27.136h16.579l-9.3,23.976a4.774,4.774,0,0,0,.179,4.333,4.268,4.268,0,0,0,3.718,1.867,9.111,9.111,0,0,0,5.248-1.785,9.8,9.8,0,0,0,3.595-4.4l9.307-23.994Z" transform="translate(-838.679 -157.155)" fill="#e66406"/>
    <path id="Path_1817" data-name="Path 1817" d="M-1394.852,860.922h14.858l-1.613,4.458c5.9-4.718,12.7-6.872,18.422-5.832a8.539,8.539,0,0,1,7.211,6.132,26.715,26.715,0,0,1,8.1-4.757c5.013-1.845,9.627-2.106,13.659-.775,5.188,1.762,7.17,7.414,4.814,13.715l-9.864,27.244h-15.277l8.642-23.87a5.055,5.055,0,0,0-.183-4.41,3.944,3.944,0,0,0-3.595-1.818,8.2,8.2,0,0,0-4.739,1.8,9.636,9.636,0,0,0-3.269,4.25l-8.706,24.049h-15.712l8.679-23.977a5.005,5.005,0,0,0-.191-4.518,4,4,0,0,0-3.794-1.722,8.344,8.344,0,0,0-4.638,1.867,9.6,9.6,0,0,0-3.171,4.179l-8.749,24.169H-1409.4l14.549-40.184Z" transform="translate(-1228.63 -142.929)" fill="#e66406"/>
  </g>
</svg>
