<svg xmlns="http://www.w3.org/2000/svg" width="234.43" height="143.31" viewBox="0 0 234.43 143.31">
  <g id="Group_1175" data-name="Group 1175" transform="translate(-3664.24 -6433.24)">
    <path id="Path_1888" data-name="Path 1888" d="M3800.017,6433.24a1.157,1.157,0,0,0,.2.147c2.514,1.1,3.211,2.365,2.531,5.052a45.656,45.656,0,0,1-5.342,12.35c-4.4,7.309-8.737,14.652-12.448,22.344a69.309,69.309,0,0,0-5.183,13.167,16.135,16.135,0,0,0-.581,6.47,3.887,3.887,0,0,0,1.708,2.7,5.294,5.294,0,0,0,.486-.72c1.478-3.163,3.015-6.3,4.4-9.506,2.982-6.9,5.884-13.841,8.821-20.763.141-.334.311-.657.453-.991.564-1.33,1.122-2.663,1.683-3.993a1.477,1.477,0,0,1,.519-.728l-.327,1.114c.838-.762,1.749-1.615,2.689-2.435a2.854,2.854,0,0,1,2.337-.709,2.787,2.787,0,0,1,.773.372,2.531,2.531,0,0,1-.463.641,19.078,19.078,0,0,0-4.659,5.01c-.581.867-.56,1.117.32,1.686a5.591,5.591,0,0,0,4.857.457,8.815,8.815,0,0,0,5.853-5.472c.764-1.986-.222-3.5-2.332-3.759a14.229,14.229,0,0,0-5.75.886,2.426,2.426,0,0,1-.923.134,1.573,1.573,0,0,1,.34-.241,18.847,18.847,0,0,1,6.4-1.192c3.625-.033,5.431,2.436,4.087,5.793-1.373,3.43-3.757,5.775-7.716,5.833a7.7,7.7,0,0,1-5.4-2.163c-.163-.149-.3-.319-.543-.573a7.6,7.6,0,0,0-.495.783c-1.97,4.2-3.923,8.409-5.9,12.607q-4.017,8.534-8.064,17.055c-.2.422-.458.816-.751,1.331a8.081,8.081,0,0,0,4.3-.288c-.191-.541-.366-.979-.5-1.429-.909-3.057.084-5.705,1.93-8.062a45.312,45.312,0,0,1,3.3-3.319,1.125,1.125,0,0,0,.319-.878c-1.148-4.045.569-7.24,3.555-9.457a20.172,20.172,0,0,1,8.6-3.344,60.9,60.9,0,0,1,17.124-.4c2.084.205,4.159.51,6.243.724a1.274,1.274,0,0,0,.938-.308c4.264-4.548,9.681-6.829,15.676-7.879a28.874,28.874,0,0,1,14.886,1.141,21.152,21.152,0,0,1,11.51,9.771,9.892,9.892,0,0,1,1.263,6.171c.539,0,1.031.021,1.521,0a50.87,50.87,0,0,0,17.365-3.743,17.785,17.785,0,0,0,5.684-3.652,7.173,7.173,0,0,0,1.738-8.788,3.167,3.167,0,0,1-.269-.918,7.084,7.084,0,0,1,1.153,6.223,9.036,9.036,0,0,1-3.291,4.547,29.309,29.309,0,0,1-10.243,4.848,52.472,52.472,0,0,1-12.938,2.207,1.181,1.181,0,0,0-1.208.869,8.279,8.279,0,0,1-1.51,2.485c-4.124,4.239-9.064,6.161-14.973,4.818a9.6,9.6,0,0,1-5.8-3.586,5.864,5.864,0,0,1-.285-7.162c.133-.207.26-.417.447-.717-.843-.228-1.61-.446-2.384-.642-5.364-1.349-10.722-2.717-16.095-4.026-2.061-.5-2.071-.437-3.121,1.411a7.686,7.686,0,0,0-.991,3.683c-.014.57.18.75.743.833a39.205,39.205,0,0,1,10.955,3,13.692,13.692,0,0,1,4.586,3.181,8.27,8.27,0,0,1,1.015,1.433,2.266,2.266,0,0,1-1.027,3.5,9.622,9.622,0,0,1-9.983-.2,15.176,15.176,0,0,1-7.105-9.476.986.986,0,0,0-1-.875,95.424,95.424,0,0,0-14.158-.133,35.671,35.671,0,0,0-10.986,2.11c-2.093.842-4.09,1.923-6.135,2.885-.629.3-.687.654-.314,1.239a10.9,10.9,0,0,0,8.924,5.183,44.249,44.249,0,0,0,5.487-.257c-1.316.789-5.662.979-8.393.069a11.264,11.264,0,0,1-6.74-5.545c-2.939,2.054-5.387,4.345-5.93,8.03a7,7,0,0,0,.806,4.219c.285.564.6,1.114.918,1.706-.127-.008-.208.007-.219-.016-.568-1.114-1.389-1.251-2.533-.859a7.725,7.725,0,0,1-2.567.324,1.393,1.393,0,0,0-1.219.66,29.358,29.358,0,0,1-3.174,3.534c-2.025,1.747-3.924.33-5.169-1.155-.036-.043,0-.148.008-.225l.3-.28a2.8,2.8,0,0,0,.351.737,2.722,2.722,0,0,0,3.951.5,11.409,11.409,0,0,0,3.331-3.771l-2.455-2.543-1.5,2.98-.356-.109a8.036,8.036,0,0,0,1.086-7.7c-1.023-2.643-3.053-4.405-5.387-6.01a11.481,11.481,0,0,1-8.117,5.874,12.977,12.977,0,0,1-7.247-.566,16.714,16.714,0,0,0,8.552-.114,10.529,10.529,0,0,0,6.546-5.595c-2.035-.978-3.976-2.02-6-2.859a38.226,38.226,0,0,0-14.362-2.537c-3.741-.049-7.484.12-11.227.175a1.43,1.43,0,0,0-1.58,1.252,14.726,14.726,0,0,1-8.433,9.854,9.376,9.376,0,0,1-8.557-.507c-1.521-.816-1.836-1.967-1.019-3.509a8.724,8.724,0,0,1,2.92-3.068c3.279-2.243,7.015-3.272,10.838-4.057.931-.19,1.866-.375,2.809-.478.6-.065.741-.362.737-.881a8.483,8.483,0,0,0-1.831-4.949c-.362-.5-.812-.416-1.275-.307-3.995.948-7.991,1.887-11.978,2.868-2.223.548-4.43,1.168-6.643,1.759-.262.07-.519.162-.84.264.112.2.185.343.269.479,1.972,3.149,1.621,5.985-1.131,8.49a11.434,11.434,0,0,1-7.592,2.892,15.591,15.591,0,0,1-12.176-5.208,7.447,7.447,0,0,1-1.476-2.408,1.326,1.326,0,0,0-1.4-.978,52.658,52.658,0,0,1-15.794-3.192,21.6,21.6,0,0,1-8.572-5.1,7.21,7.21,0,0,1-.578-9.756c-.129.3-.254.6-.387.9-1.662,3.732-.982,6.8,2.1,9.485a25.143,25.143,0,0,0,9.769,4.832,53.177,53.177,0,0,0,13.373,2.137c.483.015.965.1.929-.676-.161-3.466,1.395-6.239,3.544-8.791,4.666-5.542,10.8-7.824,17.845-8.053a30.006,30.006,0,0,1,17.126,4.409,55.274,55.274,0,0,1,4.766,3.8,1.6,1.6,0,0,0,1.054.388,94.269,94.269,0,0,1,14.363-1.12,38.556,38.556,0,0,1,13.284,1.968c1.658.62,3.212,1.521,4.885,2.329a1.733,1.733,0,0,0,.164-.422,11.576,11.576,0,0,1,3.1-5.851,6.8,6.8,0,0,1,10.323.592,11.988,11.988,0,0,1,1.283,2.956c-.048.062.045-.028.1-.137,3.2-6.185,6.478-12.325,9.548-18.571,1.71-3.479,3.119-7.111,4.55-10.72a19.836,19.836,0,0,0,.792-3.677,3.59,3.59,0,0,0,0-1.087,1.947,1.947,0,0,0-2.459-1.746c-.64.134-1.27.322-1.9.485l-.076-.24,2.94-.983Zm-65.534,36.571a7.49,7.49,0,0,0-.642-.716,39.9,39.9,0,0,0-3.112-2.539,30.8,30.8,0,0,0-15.217-5.154c-6.608-.506-12.573,1.129-17.449,5.732a13.214,13.214,0,0,0-4.491,9.866c.006,1.4.028,1.4,1.46,1.36.28-.008.559-.023.837-.044a93.689,93.689,0,0,0,14.03-2.353c.845-.2,1.681-.43,2.687-.688-3.633-2.723-7.268-3-11.11-.895.039-.185.059-.24.1-.276a.929.929,0,0,1,.2-.146c3.776-1.905,7.549-2.205,11.2.234a2.672,2.672,0,0,0,2.457.382q7.642-2.064,15.311-4.019C3731.923,6470.254,3733.135,6470.076,3734.482,6469.812Zm127.084,4.379-.079.188a10.129,10.129,0,0,0-5.594-1.359,9.615,9.615,0,0,0-5.427,2.322c2.543.568,4.838,1.2,7.176,1.575,3.636.579,7.3.977,10.952,1.456.613.08.917-.178.872-.785a18.4,18.4,0,0,0-.314-3.317c-1.447-5.487-5.2-8.941-10.232-11.118a24.65,24.65,0,0,0-14.556-1.367,29.126,29.126,0,0,0-14.757,6.913c-.341.31-.641.662-1.063,1.1,1.635.33,3.125.56,4.576.934,5.031,1.3,10.046,2.657,15.077,3.955a1.753,1.753,0,0,0,1.3-.161c3.694-2.653,7.532-2.592,11.492-.714A5.009,5.009,0,0,1,3861.567,6474.19Zm-70.118,7.992c.316-.192.531-.317.74-.452a30.686,30.686,0,0,1,9.159-4.056c6.275-1.594,12.665-1.593,19.072-1.24,1.295.07,2.587.2,3.967.3a8.958,8.958,0,0,1,1.919-6.185c-.5-.09-.831-.174-1.162-.2-3.976-.357-7.947-.79-11.93-1.036a41,41,0,0,0-12.149,1.028,15.277,15.277,0,0,0-7.732,3.952A7.342,7.342,0,0,0,3791.449,6482.183Zm-19.795-.208a6.744,6.744,0,0,0,.188-3.84,1.481,1.481,0,0,0-.686-.759,3.24,3.24,0,0,1-1.8-2.4,2.886,2.886,0,0,0-1.8-2.4,26.194,26.194,0,0,0-2.546-1.266,34.327,34.327,0,0,0-13.167-2.049c-3.484.022-6.969.355-10.448.621-1.513.115-3.013.408-4.521.621.026.174.018.238.045.28a8.669,8.669,0,0,1,1.739,5.487c-.01.131.345.411.529.411.668,0,1.335-.1,2-.156a82.686,82.686,0,0,1,13.557-.007,32.265,32.265,0,0,1,10.031,2.171C3767.085,6479.677,3769.308,6480.846,3771.654,6481.975Zm8.758-5.8.043.212a17.47,17.47,0,0,1-7.892,1.647c-.152,1.307-.236,2.525-.46,3.718a1.028,1.028,0,0,0,.431,1.2,15.248,15.248,0,0,1,4.29,4.871c.215.406.406.824.54,1.1.8-2.863,1.508-5.822,2.472-8.694s2.193-5.673,3.305-8.5l.186.075-.054.6a.6.6,0,0,0,.265-.445c-.013-.5-.092-.992-.1-1.488-.05-2.817-1.552-4.233-4.378-4.212-3.826.029-7.907,4.587-7.858,8.392a2.662,2.662,0,0,0,2.744,2.886,23.438,23.438,0,0,0,3.711-.482A26.079,26.079,0,0,0,3780.412,6476.177Zm-86.358,3.01-.2.264a23.172,23.172,0,0,0,1.613,2.49,15.4,15.4,0,0,0,4.938,3.819c4.141,2.1,8.242,2.214,12.263-.318a5.34,5.34,0,0,0,1.906-7.8c-.9-1.539-.9-1.539-2.621-1.133-.217.052-.436.1-.653.147a86.171,86.171,0,0,1-16.03,2.454C3694.866,6479.124,3694.46,6479.16,3694.053,6479.187Zm175.2.222-.255-.228c-1.166-.065-2.334-.107-3.5-.2a99.151,99.151,0,0,1-14.258-2.437c-1.935-.445-1.961-.425-2.893,1.33a7.17,7.17,0,0,0-.548,1.309,4.639,4.639,0,0,0,.884,4.786,10.351,10.351,0,0,0,8.27,3.333,14.938,14.938,0,0,0,10.343-5.054A20.592,20.592,0,0,0,3869.256,6479.408Zm-131.947-1.621c-1.719.277-3.267.48-4.8.783a24.786,24.786,0,0,0-9.1,3.234,8.323,8.323,0,0,0-2.951,3.143,1.89,1.89,0,0,0,.734,2.807,8.668,8.668,0,0,0,6.27,1.249c4.15-.741,6.795-3.41,8.586-7.056A11.628,11.628,0,0,0,3737.309,6477.787Zm88.458.056a3.111,3.111,0,0,0,0,.483,14.673,14.673,0,0,0,4.485,8.059,9.614,9.614,0,0,0,11.1,1.687c1.72-.942,1.989-1.97.95-3.623a10.446,10.446,0,0,0-4.774-3.812,34.611,34.611,0,0,0-8.941-2.41C3827.667,6478.077,3826.738,6477.974,3825.767,6477.843Z" transform="translate(-0.186)"/>
    <path id="Path_1889" data-name="Path 1889" d="M3898.67,6617.857q-10.442-.006-20.885-.012-106.06,0-212.12,0c-.476,0-.95.008-1.426.012v-1.511c.307-.01.614-.028.921-.028q116.336,0,232.672,0c.279,0,.559.019.837.028Z" transform="translate(0 -55.068)"/>
    <path id="Path_1890" data-name="Path 1890" d="M3990.23,6589.4c-.072.5-.132.992-.219,1.485-.629,3.567-3.037,5.42-6.292,6.331a13.9,13.9,0,0,1-13.6-3.068,3.39,3.39,0,0,1-1.438-3.2,1.657,1.657,0,0,1,1.3-1.474,1.717,1.717,0,0,1,1.885.592,1.693,1.693,0,0,1,.087,2.044c-.488.686-.249,1.037.3,1.414a21.394,21.394,0,0,0,2.558,1.738,10.2,10.2,0,0,0,10.174-.527c3.753-2.238,3.71-7.956-.087-10.381a32.272,32.272,0,0,0-5.523-2.34c-1.631-.649-3.342-1.127-4.915-1.894-6-2.927-5.338-11.37-1.5-14.477a10.46,10.46,0,0,1,6.5-2.082,9.422,9.422,0,0,1,7.333,2.9,3.89,3.89,0,0,1,1.316,2.809,1.817,1.817,0,0,1-1.26,1.869,1.778,1.778,0,0,1-2.051-.731,1.893,1.893,0,0,1,.279-2.31c.073-.083.145-.167.259-.3a7.583,7.583,0,0,0-11.913-.246,5.537,5.537,0,0,0-1.005,5.443,4.328,4.328,0,0,0,2.771,2.937c2.011.67,4.045,1.275,6.075,1.886,2.724.819,5.247,1.949,6.947,4.385a10.131,10.131,0,0,1,1.889,4.956,3.845,3.845,0,0,0,.134.565Z" transform="translate(-91.56 -39.197)"/>
    <path id="Path_1891" data-name="Path 1891" d="M3873.36,6632.564c.129-.12.262-.346.387-.341.8.028.913-.484.917-1.1,0-.8,0-1.6,0-2.394a16.288,16.288,0,0,1-2.005.489,2.434,2.434,0,0,1-2.619-1.264,3.01,3.01,0,0,1,.116-3.186c1.005-1.628,2.326-2.183,4.509-1.866-.141-1.053.549-2.39-1.448-2.621l.2-.226,2.466-.6v3.893c.409-.17.678-.285.949-.394a2.854,2.854,0,0,1,3.5,4.354c-.9,1.2-2.026,2.375-4.406,1.729,0,.849-.047,1.678.03,2.5.022.233.4.449.634.641a5.207,5.207,0,0,0,.632.383Zm1.312-6.627.081-.01a4.828,4.828,0,0,0-.3-1.839,1.917,1.917,0,0,0-2.965.22,3.3,3.3,0,0,0,.03,3.28,1.94,1.94,0,0,0,2.281.773c.843-.236.9-.881.875-1.588C3874.664,6626.495,3874.672,6626.216,3874.672,6625.937Zm1.234.105-.073.008a4.773,4.773,0,0,0,.275,1.843,1.918,1.918,0,0,0,3.013-.306,3.5,3.5,0,0,0-.045-3.146,1.929,1.929,0,0,0-2.244-.866c-.862.235-.987.874-.93,1.631C3875.924,6625.484,3875.906,6625.763,3875.906,6626.042Z" transform="translate(-61.783 -56.014)"/>
    <path id="Path_1892" data-name="Path 1892" d="M3665.508,6529.228c.21-.016.4-.043.592-.043,5.09,0,10.182-.1,15.269.024,10.024.252,18.073,4.545,24.258,12.352a30.182,30.182,0,0,1,6.509,14.874,23,23,0,0,1-4.817,17.7c-4.8,6.257-11.311,9.8-18.888,11.431a48.66,48.66,0,0,1-8.474.979c-4.469.158-8.947.047-13.422.032-.273,0-.718-.093-.782-.258-.148-.381-.165-.856.486-.9a5.336,5.336,0,0,0,.91-.129c1.385-.333,1.78-.757,1.921-2.159.087-.861.137-1.73.138-2.595q.011-22.82,0-45.64a12.212,12.212,0,0,0-.095-1.419c-.266-2.262-.572-2.6-2.776-3.132C3665.792,6530.218,3665.142,6530.18,3665.508,6529.228Zm7.822,28.8h-.025q0,11.993,0,23.987a8.679,8.679,0,0,0,.038,1.088,2.105,2.105,0,0,0,2.033,2.085,21.146,21.146,0,0,0,4.6-.048,52.214,52.214,0,0,0,14.42-4.526,21.689,21.689,0,0,0,10.745-10.868c3.308-7.673,3.236-15.409-.744-22.806-5.906-10.975-15.226-16.453-27.725-16.383-2.4.014-3.327.954-3.335,3.317C3673.313,6541.927,3673.33,6549.978,3673.33,6558.03Z" transform="translate(-0.349 -28.847)"/>
    <path id="Path_1893" data-name="Path 1893" d="M3793.352,6569.626q0,6.166,0,12.332c0,.2,0,.392.013.587.094,2,.512,2.455,2.509,2.746a3.49,3.49,0,0,1,.986.149.982.982,0,0,1,.492.651c.019.138-.355.476-.554.477q-5.158.046-10.318,0c-.224,0-.444-.336-.666-.516a3.028,3.028,0,0,1,.6-.6c.2-.114.493-.061.736-.116,1.485-.335,1.872-.754,1.99-2.259.084-1.057.151-2.119.152-3.179q.015-22.358,0-44.715a16.53,16.53,0,0,0-.207-2.584,2.268,2.268,0,0,0-1.8-1.981,6.655,6.655,0,0,1-1.292-.335c-.229-.11-.344-.456-.511-.694a4.888,4.888,0,0,1,.613-.385,1.086,1.086,0,0,1,.415-.011c6.013.007,12.027-.084,18.036.051,4.724.106,8.988,1.624,12.177,5.289a12.832,12.832,0,0,1,3.307,11.179c-.6,3.131-2.647,5.373-5.186,7.159a15.847,15.847,0,0,1-8.643,2.861c-3.937.154-7.881.142-11.823.138-.863,0-1.08.26-1.072,1.094.038,4.222.017,8.445.017,12.667Zm-.023-26.173q0,4.778,0,9.557c0,.46-.044.9.653.891,4.383-.07,8.776.032,13.148-.224,4.229-.247,6.953-2.683,8.019-6.793a14.77,14.77,0,0,0-.772-9.272,9.5,9.5,0,0,0-8.648-6.515,77.294,77.294,0,0,0-9.119-.049c-2.9.141-3.269.676-3.278,3.6S3793.328,6540.52,3793.328,6543.454Z" transform="translate(-36.47 -28.853)"/>
    <path id="Path_1894" data-name="Path 1894" d="M3922.749,6580.842a18.4,18.4,0,0,0,.8,5.563,16.366,16.366,0,0,0,4.683,7.615,9.835,9.835,0,0,0,7.343,2.521c5.751-.328,10.15-2.85,12.6-8.26.45-.994,1.223-.432,1.9-.579,0,.186.036.308-.006.394a15.2,15.2,0,0,1-15.808,9.57c-6.395-.294-10.853-3.534-13.646-9.19a17.849,17.849,0,0,1,2.813-19.927,15.871,15.871,0,0,1,22.706-.5,17.353,17.353,0,0,1,5.412,12.086c.022.5-.12.739-.646.706-.362-.023-.727,0-1.09,0h-27.057Zm24.665-1.766a11.228,11.228,0,0,0-.134-1.613,17.284,17.284,0,0,0-7.621-11.205,9.8,9.8,0,0,0-12.834,1.874,17.4,17.4,0,0,0-3.767,8.3c-.18.854-.248,1.732-.375,2.648Z" transform="translate(-76.56 -39.186)"/>
    <path id="Path_1895" data-name="Path 1895" d="M3854.7,6580.618a17.088,17.088,0,0,1-15.14,16.967,15.4,15.4,0,0,1-15.408-8.454,17.952,17.952,0,0,1,3.226-21.373,15.889,15.889,0,0,1,21.936.286A16.919,16.919,0,0,1,3854.7,6580.618Zm-4.027,1.11a17.141,17.141,0,0,0-5.99-14.146,10.288,10.288,0,0,0-5.779-2.844c-4.389-.435-7.7,1.386-10.054,5.039a19.491,19.491,0,0,0-2.751,8.625,18.412,18.412,0,0,0,2.971,12.864c2.536,3.685,5.919,5.774,10.586,5.293,4.762-.491,7.826-3.151,9.562-7.462A21.759,21.759,0,0,0,3850.67,6581.729Z" transform="translate(-47.454 -39.181)"/>
    <path id="Path_1896" data-name="Path 1896" d="M3872.064,6596.851c-.246-.745-.058-1.01.725-1.1,2.039-.246,2.571-.828,2.614-2.583.029-1.229.114-2.457.122-3.685q.058-9.643.083-19.288a11.034,11.034,0,0,0-.078-1.42c-.356-2.81-1.175-3.026-2.935-3.32-.632-.106-.974-.39-.707-1.146a5.031,5.031,0,0,1,.606-.07c2.1-.006,4.194.019,6.291-.017.635-.01.821.2.8.817a27.476,27.476,0,0,0,.142,3.95l.59-.813c1.542-2.135,3.367-3.916,6.049-4.474a3.005,3.005,0,0,1,1.726.3,1.564,1.564,0,0,1,.843,1.839,1.7,1.7,0,0,1-1.382,1.411,1.735,1.735,0,0,1-1.882-.8c-.112-.153-.214-.314-.378-.555a9.27,9.27,0,0,0-2.682,3.418c-1.364,2.948-2.779,5.974-2.94,9.217-.249,4.989-.088,10,.005,15,.027,1.465.705,1.948,2.2,2.13a4.168,4.168,0,0,0,.581.075c.761-.017,1,.336.759,1.117Z" transform="translate(-62.431 -39.23)"/>
    <path id="Path_1897" data-name="Path 1897" d="M3903.255,6562.6c-1.088,0-2.037-.033-2.98.012-.644.031-.884-.16-.883-.839,0-.695.222-.951.917-.9s1.4-.023,2.095.02c.638.04.88-.152.867-.838-.043-2.235.01-4.473-.032-6.708-.014-.71.221-.929.906-.883a18.811,18.811,0,0,0,2.346,0c.632-.037.825.2.818.817-.026,2.236.012,4.473-.023,6.708-.011.692.2.965.9.9.527-.047,1.062.01,1.592-.013.642-.028,1.107-.02,1.1.891-.009.867-.451.857-1.052.838-.642-.021-1.286.013-1.928-.008-.434-.014-.619.168-.595.591,0,.055,0,.112,0,.168.009,8.721.006,17.441.036,26.162.007,2.116.573,2.674,2.714,2.929.436.052.93.106.754.7a.973.973,0,0,1-.761.458,15.785,15.785,0,0,1-2.505-.117c-3.044-.414-4.281-1.854-4.283-4.944q-.006-12.368,0-24.737Z" transform="translate(-70.732 -35.858)"/>
    <path id="Path_1898" data-name="Path 1898" d="M3743.4,6579.345q0,6.289,0,12.576c0,.392,0,.783.018,1.174.083,2.2.649,2.777,2.872,2.942.413.031.856-.024.852.631-.005.7-.487.56-.878.56q-4.82.011-9.641,0c-.375,0-.817.095-.832-.532-.013-.579.377-.59.775-.64,2.1-.26,2.478-.647,2.664-2.786.072-.833.12-1.671.122-2.507q.013-10.354,0-20.708a9.758,9.758,0,0,0-.214-1.992,2.453,2.453,0,0,0-2.164-2.229,1.852,1.852,0,0,1-.8-.208,3.506,3.506,0,0,1-.614-.72c.246-.145.49-.414.737-.418,2.1-.034,4.192.008,6.287-.036.708-.015.834.278.832.891C3743.4,6570.011,3743.4,6574.678,3743.4,6579.345Z" transform="translate(-21.451 -39.468)"/>
    <path id="Path_1899" data-name="Path 1899" d="M3745.169,6543.165l-3.241,2.921-3.12-2.791,3.2-3.151Z" transform="translate(-22.43 -32.156)"/>
    <path id="Path_1900" data-name="Path 1900" d="M3985.956,6481.262a13.212,13.212,0,0,0-2.36-.914,5.987,5.987,0,0,0-5.314,1.653c-1.282,1.178-1,2.24.659,2.721.2.059.4.142.707.254a2.8,2.8,0,0,1-2.744-1.212,2.075,2.075,0,0,1,.4-2.4,5.763,5.763,0,0,1,6.2-1.554c.887.334,1.72.813,2.578,1.226Z" transform="translate(-93.978 -13.908)"/>
    <path id="Path_1901" data-name="Path 1901" d="M3679.907,6484.908c.363-.117.735-.212,1.088-.356a1.172,1.172,0,0,0,.625-1.938,5.529,5.529,0,0,0-3.543-2.2,4.731,4.731,0,0,0-4.216.762.9.9,0,0,1-.219.122,1.119,1.119,0,0,1-.252.018c.084-.146.118-.279.2-.341a6.487,6.487,0,0,1,7.379-.575,4.823,4.823,0,0,1,.907.735,2.23,2.23,0,0,1,.687,2.5A2.532,2.532,0,0,1,3679.907,6484.908Z" transform="translate(-2.752 -13.913)"/>
    <path id="Path_1902" data-name="Path 1902" d="M3721.905,6618.974c.021,1.072-.436,1.546-1.067,1.731a5.644,5.644,0,0,1-2.045.238c-2.153-.2-3.155.793-2.9,3.075a3.543,3.543,0,0,1,3.329-1.436c2.021.226,3,1.287,2.983,3.138a3.384,3.384,0,0,1-3.117,3.354c-2.352.258-3.784-.814-3.922-3.142a18.98,18.98,0,0,1,.247-4.082,2.5,2.5,0,0,1,2.892-2.287C3719.493,6619.595,3720.722,6620.083,3721.905,6618.974Zm-5.452,6.549a15.516,15.516,0,0,0,.9,2.2,1.666,1.666,0,0,0,1.9.743,1.615,1.615,0,0,0,1.384-1.482,6.853,6.853,0,0,0-.075-2.063,2.032,2.032,0,0,0-2.392-1.706C3717.167,6623.352,3716.618,6624.151,3716.453,6625.523Z" transform="translate(-15.31 -55.867)"/>
    <path id="Path_1903" data-name="Path 1903" d="M3673.091,6624.414a6.217,6.217,0,0,0,.867-.1c1.545-.39,2.164.481,2.609,1.772a30.913,30.913,0,0,0,1.362,2.92c.71-1.4,1.368-2.619,1.946-3.872.279-.605.561-.954,1.309-.808a9.181,9.181,0,0,0,1.7.021,1.8,1.8,0,0,1-.114.335c-1.11,0-1.155.719-1.11,1.566.049.92.045,1.846,0,2.766-.03.672.121,1.1.894,1.062.1,0,.2.117.274.342h-3.671l-.182-.217c1.766-.059,1.283-1.259,1.323-2.178a7.829,7.829,0,0,0-.142-1.99c-.444.831-.9,1.659-1.331,2.5-.231.445-.405.923-.658,1.356a4.731,4.731,0,0,1-.616.707,3.844,3.844,0,0,1-.543-.67c-.639-1.3-1.249-2.608-2.032-3.891,0,1.149-.024,2.3.023,3.447.008.191.3.412.5.543a2.082,2.082,0,0,0,.634.169l-.034.23h-3.056c.063-.177.082-.272.1-.273,1.028-.01,1.2-.621,1.129-1.494-.061-.777-.013-1.563-.014-2.346,0-1.318,0-1.318-1.129-1.654Z" transform="translate(-2.648 -57.446)"/>
    <path id="Path_1904" data-name="Path 1904" d="M3795.582,6630.48h-3.745c.075-.176.107-.312.136-.311,1.11.03,1.126-.7,1.092-1.509-.031-.752,0-1.508-.007-2.262,0-1.323-.006-1.323-1.134-1.742.337-.4,3.114-.452,3.659-.058-.048.062-.086.164-.145.178a1.186,1.186,0,0,0-.981,1.713.568.568,0,0,0,.4.315q1.336.074,2.675.073c.537,0,.635-.394.571-.817-.068-.442.263-1.07-.507-1.224-.206-.042-.413-.071-.66-.113.388-.466,3.146-.531,3.706-.15-.018.05-.036.145-.055.145-1.124,0-1.166.745-1.123,1.587.035.7.007,1.4.007,2.094,0,1.356,0,1.356,1.138,1.878a6.664,6.664,0,0,1-3.623.058c.022-.047.03-.122.066-.14.331-.159.913-.257.955-.468a7.97,7.97,0,0,0,.034-1.992c-.006-.095-.293-.243-.453-.247q-1.34-.036-2.68,0c-.154,0-.43.167-.435.268a16.2,16.2,0,0,0,.013,2c.008.108.286.226.457.288a4.778,4.778,0,0,0,.665.14Z" transform="translate(-38.38 -57.478)"/>
    <path id="Path_1905" data-name="Path 1905" d="M3958.344,6630.206c-.075.634-.124,1.218-.226,1.79-.026.145-.223.258-.342.386-.1-.139-.311-.292-.294-.414.155-1.166-.568-1.372-1.467-1.367-1.423.007-2.846.061-4.269.051-.64,0-.872.308-.989.881a1.546,1.546,0,0,1-.6.88c.045-1.007-.454-2.142.865-2.758a1.6,1.6,0,0,0,.671-1.1,14.506,14.506,0,0,0,.19-3.077c-.02-.33-.622-.623-.96-.933.231-.25,6.719-.276,7.234.184-1.667-.023-1.26,1.132-1.282,2.044-.013.559,0,1.118,0,1.677C3956.874,6629.946,3956.874,6629.946,3958.344,6630.206Zm-6.6-.308a1.258,1.258,0,0,0,.3.112c.892.009,1.785-.02,2.675.023.594.027.8-.253.808-.78.011-.808.059-1.619.014-2.424-.137-2.421.181-1.851-2-1.949-.644-.029-.883.2-.876.867C3952.681,6627.185,3952.813,6628.664,3951.742,6629.9Z" transform="translate(-85.985 -57.489)"/>
    <path id="Path_1906" data-name="Path 1906" d="M3899.662,6626.521a1.356,1.356,0,0,0-1.194-1.524,1.476,1.476,0,0,0-1.77.577c-.114.192-.366.3-.554.452-.023-.334-.193-.771-.044-.985.763-1.1,3.576-1.194,4.441-.175a1.839,1.839,0,0,1,.413.973c.088,1.027.111,2.061.131,3.092.01.55-.043,1.1.76,1.1.066,0,.133.148.322.375h-2.349l-.188-.853a4.551,4.551,0,0,1-1.053.7,5.455,5.455,0,0,1-1.913.324,1.367,1.367,0,0,1-1.255-1.358,1.893,1.893,0,0,1,1.173-1.946,16.463,16.463,0,0,1,2.019-.523C3898.948,6626.661,3899.3,6626.6,3899.662,6626.521Zm-.054.557c-.722.207-1.4.357-2.042.6a1.056,1.056,0,0,0-.689,1.42c.233.7.833.765,1.449.6C3899.5,6629.386,3899.836,6628.728,3899.608,6627.078Z" transform="translate(-69.531 -57.426)"/>
    <path id="Path_1907" data-name="Path 1907" d="M3936.345,6630.542l-.188-.947c-.332.213-.588.4-.865.551a3.744,3.744,0,0,1-1.047.486,1.776,1.776,0,0,1-2.231-1.122,1.964,1.964,0,0,1,1.46-2.384c.558-.171,1.142-.257,1.714-.381l1.246-.274c-.381-.521-.587-1.074-.97-1.256a2.351,2.351,0,0,0-1.591-.113c-.424.135-.73.646-1.134,1.034-.331-.569-.4-1.06.239-1.338a6.13,6.13,0,0,1,1.889-.6c1.9-.15,2.658.593,2.716,2.493.015.5-.007,1.006.012,1.507.03.808-.28,1.782,1.089,1.977l-.131.262Zm-.244-3.463c-.742.226-1.44.4-2.1.654a1.033,1.033,0,0,0-.566,1.4.934.934,0,0,0,1.289.594C3936.029,6629.314,3936.478,6628.9,3936.1,6627.079Z" transform="translate(-80.527 -57.433)"/>
    <path id="Path_1908" data-name="Path 1908" d="M3697.77,6627.472c.021,2.169,1.569,2.824,4.5,2.036-.181.234-.314.57-.553.685a4.7,4.7,0,0,1-3.507.284,2.992,2.992,0,0,1-2.015-3.373,3.21,3.21,0,0,1,3.071-2.908c1.813-.183,2.988.608,3.23,2.15.1.608-.042.978-.74.988-1,.015-2.009.056-3.013.09C3698.416,6627.435,3698.091,6627.456,3697.77,6627.472Zm0-.62c.831,0,1.658-.013,2.484,0,.708.015.876-.338.719-.958a1.524,1.524,0,0,0-1.8-1.125C3698.272,6624.886,3697.813,6625.5,3697.767,6626.852Z" transform="translate(-9.602 -57.43)"/>
    <path id="Path_1909" data-name="Path 1909" d="M3843.56,6629.536c-.213.233-.4.63-.644.671a10.842,10.842,0,0,1-3.189.313c-1.623-.228-2.381-1.582-2.249-3.48a3.136,3.136,0,0,1,2.939-2.837c1.873-.238,3.195.651,3.321,2.206.046.566-.075.926-.729.921-1.306-.007-2.612,0-3.934,0a1.784,1.784,0,0,0,.656,1.934,3.536,3.536,0,0,0,1.772.568,7.757,7.757,0,0,0,1.912-.425Zm-4.455-2.789h3.169c-.052-1.483-.6-2.059-1.772-1.978C3839.54,6624.835,3839,6625.552,3839.1,6626.747Z" transform="translate(-52.104 -57.428)"/>
    <path id="Path_1910" data-name="Path 1910" d="M3736.428,6627.47c-.245,2.047,1.4,2.755,4.454,2.048-.218.243-.406.659-.659.7a10.761,10.761,0,0,1-3.106.314c-1.578-.2-2.44-1.6-2.331-3.35a3.179,3.179,0,0,1,2.982-2.979c1.886-.234,3.18.646,3.3,2.213.045.58-.114.91-.746.921-.947.018-1.894.053-2.841.083C3737.127,6627.435,3736.771,6627.455,3736.428,6627.47Zm.011-.636c.864,0,1.748.008,2.631,0,.469-.007.62-.267.545-.723a1.559,1.559,0,0,0-1.892-1.331C3736.825,6624.9,3736.326,6625.625,3736.438,6626.834Z" transform="translate(-21.217 -57.43)"/>
    <path id="Path_1911" data-name="Path 1911" d="M3752.525,6629.449c1.4.443,1.879.134,2.009-1.1.071-.667.1-1.337.138-2.006.07-1.292.031-1.342-1.183-1.83a2.7,2.7,0,0,1,.71-.208q2.847-.026,5.693,0a3.989,3.989,0,0,1,.775.161l-.018.2c-.115.047-.231.141-.343.135-.652-.033-.81.343-.808.9,0,1.118.01,2.235-.017,3.352-.016.666.173,1.089.932,1.054.079,0,.163.11.22.337h-3.65a.981.981,0,0,1,.047-.229c1.044-.1,1.128-.789,1.083-1.641-.054-1.031-.022-2.067-.012-3.1,0-.445-.152-.636-.631-.666-2.018-.126-2.007-.141-2.064,1.893a15.328,15.328,0,0,1-.165,1.834,2.356,2.356,0,0,1-1.47,1.99,1.278,1.278,0,0,1-1.02.005C3752.556,6630.4,3752.606,6629.912,3752.525,6629.449Z" transform="translate(-26.555 -57.468)"/>
    <path id="Path_1912" data-name="Path 1912" d="M3814.28,6630.449a15.127,15.127,0,0,0,.364-1.8c.062-.749.015-1.506.015-2.26,0-1.329,0-1.329-1.159-1.721.321-.408,3.051-.483,3.728-.057-.172.082-.305.2-.435.2-.59-.019-.759.284-.778.827-.042,1.229-.059,1.2,1.2,1.272a6.626,6.626,0,0,1,1.958.35,1.4,1.4,0,0,1,.263,2.572,3.386,3.386,0,0,1-1.542.588C3816.637,6630.507,3815.367,6630.449,3814.28,6630.449Zm1.732-1.683c.136.45-.352,1.274.757,1.246,1.179-.031,1.907-.478,1.928-1.279s-.645-1.205-1.812-1.28C3815.782,6627.381,3816.053,6628.126,3816.012,6628.767Z" transform="translate(-44.896 -57.478)"/>
    <path id="Path_1913" data-name="Path 1913" d="M3970.751,6624.595c.595-.395,3.351-.329,3.688.068-1.206.445-1.18.445-1.17,1.561,0,.51.18.688.68.69a10.78,10.78,0,0,1,1.914.132c.766.145,1.452.478,1.576,1.384a1.571,1.571,0,0,1-1.3,1.713,11.392,11.392,0,0,1-2.454.378c-.761.061-1.531.014-2.329.014,1.021-1.752.436-3.564.465-5.312C3971.826,6625.03,3971.165,6624.827,3970.751,6624.595Zm2.525,4.075c0,1.32.01,1.335.781,1.336,1.192,0,1.912-.47,1.938-1.271s-.687-1.217-1.906-1.281C3973.021,6627.4,3973.314,6628.112,3973.276,6628.67Z" transform="translate(-92.196 -57.478)"/>
    <path id="Path_1914" data-name="Path 1914" d="M3776.94,6624.694c-.556.21-1.229.028-1.222.919.009,1.276-.057,1.238,1.248,1.314a6.229,6.229,0,0,1,2.026.4,1.385,1.385,0,0,1,.275,2.443,2.524,2.524,0,0,1-.57.344c-1.591.707-3.249.334-4.718.437.146-.784.319-1.442.379-2.11a19.894,19.894,0,0,0,.008-2.09c-.023-1.289-.028-1.289-1.125-1.673C3773.576,6624.255,3776.359,6624.212,3776.94,6624.694Zm-1.2,4.083c.221.3-.493,1.253.71,1.236,1.238-.018,1.96-.492,1.942-1.344-.015-.751-.667-1.133-1.79-1.215C3775.617,6627.382,3775.682,6627.981,3775.743,6628.777Z" transform="translate(-32.787 -57.483)"/>
    <path id="Path_1915" data-name="Path 1915" d="M3919.875,6629.522c-.2.338-.254.562-.39.638a4.317,4.317,0,0,1-3.642.251,2.63,2.63,0,0,1-1.774-2.34c-.257-2.072,1.108-3.633,3.372-3.87a6.232,6.232,0,0,1,.921-.019c1.433.064,1.75.53,1.256,1.856-.04.106-.167.246-.258.249s-.221-.131-.27-.236a1.787,1.787,0,0,0-2.192-1.068,1.743,1.743,0,0,0-1.468,1.779c-.146,2.27,1.372,3.518,3.577,2.943C3919.23,6629.647,3919.46,6629.608,3919.875,6629.522Z" transform="translate(-75.137 -57.431)"/>
    <path id="Path_1916" data-name="Path 1916" d="M3983.886,6630.48h-3.676c.069-.166.1-.3.13-.3,1.074,0,1.157-.678,1.1-1.521-.049-.752,0-1.509-.009-2.264-.019-1.352-.024-1.352-1.162-1.716.3-.4,3.056-.487,3.658-.11-.018.05-.035.144-.054.145-.984.015-1.135.609-1.076,1.437.056.778.01,1.564.017,2.347C3982.826,6629.773,3982.829,6629.773,3983.886,6630.48Z" transform="translate(-95.042 -57.477)"/>
    <path id="Path_1917" data-name="Path 1917" d="M3826.783,6624.8c-1.326-.144-1.315.613-1.288,1.426.03.919.027,1.84,0,2.76-.019.661.062,1.185.911,1.13.08-.006.167.1.229.332h-3.626c.036-.13.047-.225.065-.226.888-.068,1.1-.586,1.053-1.4-.064-1.11-.062-2.227-.027-3.339.027-.851-.785-.494-1.119-.816C3823.42,6624.222,3826.195,6624.222,3826.783,6624.8Z" transform="translate(-47.748 -57.484)"/>
  </g>
</svg>
