<svg xmlns="http://www.w3.org/2000/svg" width="234.602" height="58.779" viewBox="0 0 234.602 58.779">
  <g id="Group_1172" data-name="Group 1172" transform="translate(2450.017 -3543.998)">
    <g id="Group_1171" data-name="Group 1171" transform="translate(-2450.017 3543.998)">
      <path id="Path_1840" data-name="Path 1840" d="M-2450.017,3590.851v-34.138c.323-1.142.564-2.315.982-3.421,2.081-5.509,6.958-8.709,13.343-8.729,9.283-.028,18.566-.008,27.849-.008,8.171,0,16.342.026,24.512-.027,1.256-.008,1.581.372,1.558,1.595-.076,3.977-.028,7.956-.028,11.935v1.488h-1.958q-23.357,0-46.715,0c-2.446,0-3.135.7-3.136,3.129q0,11.166,0,22.331c0,2.35.707,3.05,3.074,3.05q11.1.005,22.2,0c2.994,0,5.989.013,8.983-.008,1.4-.01,2.395-.644,2.458-1.764.11-1.947.031-3.905.031-6.014h-1.625c-5.476,0-10.952-.024-16.427.022-1,.008-1.35-.28-1.334-1.291.048-3.122.06-6.246,0-9.367-.023-1.116.41-1.328,1.426-1.325,10.994.032,21.989.019,32.982.023.413,0,.826.04,1.279.063.03.435.072.77.072,1.1,0,6.759.032,13.518-.012,20.277a13.318,13.318,0,0,1-10.2,12.863c-.694.173-1.386.353-2.079.53h-44.662a5.308,5.308,0,0,0-.836-.269,13.448,13.448,0,0,1-11.308-10.341C-2449.723,3591.99-2449.872,3591.421-2450.017,3590.851Z" transform="translate(2450.017 -3544.392)" fill="#00549a"/>
      <path id="Path_1841" data-name="Path 1841" d="M-1847.392,3602.777c-.22-.455-.412-.927-.664-1.363q-16.2-28.138-32.4-56.273c-.211-.366-.373-.761-.559-1.143h17.967a6.194,6.194,0,0,0,.261.58q12.128,21.035,24.265,42.065c.841,1.456,2.605,1.347,3.5-.2q11.937-20.7,23.866-41.408c.188-.327.315-.688.47-1.034q8.6,0,17.2.011a4.521,4.521,0,0,1,1.027.246,10.363,10.363,0,0,0-.9,1.156q-11.646,20.178-23.269,40.37c-3.254,5.656-6.477,11.331-9.714,17Z" transform="translate(2027.066 -3543.998)" fill="#00549a"/>
      <path id="Path_1842" data-name="Path 1842" d="M-2096.052,3544l8.637,15.138h-28.994c-1.7,0-1.706,0-1.706,1.686q-.007,20.977-.01,41.955h-16.427c.032-.466.091-.933.091-1.4,0-13.551-.018-27.1.037-40.653.006-1.351-.411-1.623-1.664-1.615-8.036.052-16.073.026-24.11.026h-1.819V3544Z" transform="translate(2235.94 -3544)" fill="#00549a"/>
    </g>
  </g>
</svg>
