<svg xmlns="http://www.w3.org/2000/svg" width="206.008" height="175.055" viewBox="0 0 206.008 175.055">
  <g id="Group_1170" data-name="Group 1170" transform="translate(2606.281 -1514.779)">
    <path id="Path_1818" data-name="Path 1818" d="M-2135.128,2307.74q0-2.816,0-5.631c0-1.385-.013-2.771.009-4.155.014-.883.179-1.04,1.048-1.065.791-.023,1.583.008,2.374-.016.748-.022.859-.141.9-.863.017-.3.007-.594.007-.89q0-9.893,0-19.786c0-1.546.045-1.589,1.627-1.59q4.5,0,9,0c.2,0,.4-.006.593.008.728.052.853.173.894.89.017.3.007.594.007.89q0,9.943,0,19.885c0,1.462,0,1.464,1.492,1.466.461,0,.923,0,1.384-.02a.593.593,0,0,0,.623-.627c.016-.329.02-.659.02-.989q0-9.844,0-19.687c0-1.585.04-1.624,1.589-1.63,2.7-.011,5.408-.014,8.112-.031.559,0,1.119-.042,1.677-.085.861-.067,1.043.083,1.086.967.014.3.006.593.006.89q0,9.646,0,19.292c0,.264,0,.528,0,.791.022,1.02.113,1.118,1.153,1.126,1.451.011,2.9,0,4.353.006,1.113.007,1.221.1,1.223,1.159q.013,5.194,0,10.387c0,1.059-.112,1.152-1.226,1.158-1.484.009-2.968-.006-4.452.007-.931.009-1.02.108-1.049,1.017-.01.3,0,.594,0,.891q0,16.917,0,33.834c0,1.65,0,1.652-1.63,1.652h-9.3c-.3,0-.594-.005-.889-.021a.607.607,0,0,1-.625-.63c-.023-.361-.026-.725-.026-1.087q0-16.917,0-33.834c0-1.7-.093-1.8-1.764-1.816-1.864-.018-1.756-.107-1.756,1.678q0,17.016,0,34.032c0,1.678,0,1.679-1.694,1.68q-4.551,0-9.1,0c-1.268,0-1.327-.061-1.327-1.354q0-17.165,0-34.329c0-.363,0-.725-.019-1.088-.014-.337-.174-.59-.531-.6-1.045-.016-2.091-.006-3.278-.006.09.478.132.824.221,1.158a37.421,37.421,0,0,1,1.275,7.493c.127,2.169.163,4.344.2,6.518.021,1.142-.087,1.227-1.249,1.228q-10.883.007-21.765,0c-1.806,0-1.849.023-1.692,1.823.091,1.048.229,2.1.424,3.132a8.494,8.494,0,0,0,1.992,3.92c1.99,2.359,5.7,1.77,7.335.231a6.643,6.643,0,0,0,1.823-4.082c.027-.2.032-.395.052-.591a.693.693,0,0,1,.706-.685c.262-.019.527-.025.79-.025q5.045,0,10.091,0c.1,0,.2,0,.3,0,1.051.03,1.156.146.967,1.176a24.555,24.555,0,0,1-4.886,11.214,12.276,12.276,0,0,1-4.9,3.736,22.5,22.5,0,0,1-10.939,1.663,16.357,16.357,0,0,1-10.276-4.592,20.3,20.3,0,0,1-4.687-7.718,34.1,34.1,0,0,1-1.958-11.146,44.624,44.624,0,0,1,1-10.507,23.909,23.909,0,0,1,5.132-10.452,15.749,15.749,0,0,1,9.821-5.4,18.486,18.486,0,0,1,10.838,1.15,16.9,16.9,0,0,1,8.117,7.791c.2.374.378.757.567,1.136Zm-16.518,7.551c1.45,0,2.9.01,4.35,0,.99-.01,1.156-.2,1.008-1.195a10.547,10.547,0,0,0-.415-2.028,6.472,6.472,0,0,0-1-1.893c-1.409-1.724-3.326-1.806-5.329-1.466a3.664,3.664,0,0,0-2.043,1.119,7.332,7.332,0,0,0-1.879,4.365c-.129.961-.036,1.089.963,1.1C-2154.545,2315.3-2153.1,2315.291-2151.646,2315.291Z" transform="translate(-392.403 -683.871)"/>
    <path id="Path_1819" data-name="Path 1819" d="M-2564.315,2441.278q0,14.1,0,28.194c0,1.6,0,1.6-1.58,1.6q-5.342,0-10.684,0c-.2,0-.4,0-.594,0-.888-.033-.992-.141-1.022-1.063-.01-.3,0-.594,0-.89q0-10.832,0-21.665c0-1.528,0-1.53-1.534-1.531q-5.49,0-10.981,0c-.264,0-.527.006-.791.012a.615.615,0,0,0-.683.669c-.006.33-.013.659-.013.989q0,10.931,0,21.862c0,1.617,0,1.618-1.657,1.619h-10.684c-.2,0-.4,0-.594,0-.951-.029-1.094-.163-1.137-1.085-.013-.3-.006-.593-.006-.89q0-27.848,0-55.695c0-.4,0-.792.025-1.187a.71.71,0,0,1,.75-.748c.231-.01.461-.015.692-.015q5.589,0,11.178,0c.264,0,.528,0,.791.024a.605.605,0,0,1,.618.636c.017.329.021.659.021.989q0,8.36,0,16.719c0,1.435.008,1.442,1.42,1.443q5.589,0,11.179,0c.23,0,.461-.006.692-.013a.628.628,0,0,0,.694-.665c.01-.3.016-.593.016-.89q0-8.161,0-16.323c0-.264,0-.528,0-.792.025-1.014.12-1.123,1.159-1.125q5.737-.011,11.475,0c1.151,0,1.243.091,1.244,1.238q.008,9.349,0,18.7Z" transform="translate(0 -807.952)"/>
    <path id="Path_1820" data-name="Path 1820" d="M-866.64,2402.319a37.185,37.185,0,0,1,3.483-1.947,16.308,16.308,0,0,1,10.235-1.145,10.7,10.7,0,0,1,8.292,7.524,24.457,24.457,0,0,1,1.148,5.506c.126,1.375.2,2.76.2,4.141q.024,15.63.008,31.26c0,1.672,0,1.672-1.7,1.673h-9c-.264,0-.529.011-.791-.01-.658-.052-.773-.171-.816-.856-.021-.328-.009-.659-.009-.989q0-15.977.013-31.953a4.459,4.459,0,0,0-1.473-3.625,2.9,2.9,0,0,0-.555-.41,6.414,6.414,0,0,0-6.249-.055,3.727,3.727,0,0,0-1.968,3.13c-.03.36-.013.725-.013,1.088q0,16.026,0,32.052c0,1.627,0,1.628-1.651,1.629q-4.748,0-9.5,0c-1.259,0-1.324-.067-1.325-1.359q0-10.585,0-21.17,0-18.895,0-37.789c0-1.688,0-1.689,1.69-1.689h8.409c.231,0,.462-.008.692.007.708.045.831.17.878.906.019.3.008.593.008.89q0,6.034,0,12.069Z" transform="translate(-1556.999 -786.212)"/>
    <path id="Path_1821" data-name="Path 1821" d="M-1234.743,2518.427c-1.747,0-3.495.01-5.242,0-.962-.007-1.06-.115-1.094-1.092a11.043,11.043,0,0,0-.784-3.952,4.3,4.3,0,0,0-3.9-2.872,4.721,4.721,0,0,0-4.853,2.367,9.706,9.706,0,0,0-1.059,2.956,36.193,36.193,0,0,0-.455,4.417c-.106,1.741-.194,3.489-.171,5.231a32.756,32.756,0,0,0,.8,7.354,18.891,18.891,0,0,0,1.185,3.236,3.079,3.079,0,0,0,2.784,1.914,12.151,12.151,0,0,0,1.959,0,4.13,4.13,0,0,0,2.941-1.811,9.437,9.437,0,0,0,1.524-4.34c.063-.424.111-.85.189-1.271.146-.783.219-.865,1.041-.868q5.242-.017,10.485,0c.856,0,1.052.191.979.974a26.647,26.647,0,0,1-3.446,11.454,14.091,14.091,0,0,1-6.967,5.893,20.154,20.154,0,0,1-7.692,1.627,20.469,20.469,0,0,1-7.9-1.559,14.333,14.333,0,0,1-6.68-6.22,28.76,28.76,0,0,1-3.532-10.321,39.967,39.967,0,0,1-.352-9.073,36.844,36.844,0,0,1,2.7-12.6,22.588,22.588,0,0,1,3.526-5.7,11.337,11.337,0,0,1,3.4-2.525,18.926,18.926,0,0,1,15.577-1.427,14.66,14.66,0,0,1,6.033,3.844,17.817,17.817,0,0,1,2.971,4.649,20.243,20.243,0,0,1,2.223,8.643c.008,1.008-.023,1.063-1.04,1.069C-1231.313,2518.436-1233.028,2518.428-1234.743,2518.427Z" transform="translate(-1208.495 -886.992)"/>
    <path id="Path_1822" data-name="Path 1822" d="M-1321.922,1935.425c.053.493.115.806.116,1.118.009,2.011-.012,4.022.015,6.033a1.426,1.426,0,0,1-.835,1.415q-9.649,5.427-19.275,10.9-7.484,4.237-14.971,8.469-8.737,4.933-17.48,9.856-7.873,4.451-15.734,8.925-6.667,3.774-13.347,7.525a7.032,7.032,0,0,1-.735.3,5.4,5.4,0,0,1-.169-.9c-.013-2.209,0-4.417-.012-6.626a1.294,1.294,0,0,1,.746-1.266q6.39-3.56,12.758-7.16,6.074-3.417,12.146-6.837c4.081-2.289,8.172-4.56,12.252-6.85,3.448-1.935,6.884-3.891,10.331-5.828s6.9-3.858,10.351-5.794q6.077-3.411,12.147-6.834,5.388-3.023,10.787-6.027C-1322.607,1935.716-1322.364,1935.625-1321.922,1935.425Z" transform="translate(-1083.014 -379.028)" fill="#c9222e"/>
    <path id="Path_1823" data-name="Path 1823" d="M-1321.916,1514.779c.039.41.093.72.094,1.031.008,1.979-.021,3.958.017,5.936a1.651,1.651,0,0,1-.987,1.642c-4.889,2.737-9.755,5.514-14.633,8.271q-6.413,3.624-12.835,7.234c-3.759,2.125-7.507,4.268-11.265,6.394s-7.525,4.235-11.283,6.361q-6.412,3.626-12.816,7.266c-3.386,1.913-6.783,3.807-10.171,5.717-2.469,1.392-4.931,2.8-7.4,4.19-.275.155-.567.28-1,.49a8.8,8.8,0,0,1-.151-1.071c-.011-2.111.009-4.221-.013-6.332a1.528,1.528,0,0,1,.9-1.493c5.667-3.169,11.316-6.37,16.977-9.549,5.144-2.888,10.3-5.752,15.447-8.639,5.087-2.855,10.16-5.735,15.248-8.589,5.72-3.209,11.454-6.393,17.174-9.6,4.484-2.516,8.955-5.054,13.434-7.579.833-.469,1.673-.926,2.515-1.378A8.007,8.007,0,0,1-1321.916,1514.779Z" transform="translate(-1083.006)" fill="#3777b7"/>
    <path id="Path_1824" data-name="Path 1824" d="M-1321.965,1655.053c.041.4.094.68.1.96.007,2.044-.013,4.089.014,6.133a1.411,1.411,0,0,1-.828,1.412c-4.342,2.429-8.661,4.9-12.992,7.349q-6.411,3.624-12.831,7.233c-3.757,2.124-7.505,4.267-11.262,6.391-3.786,2.141-7.582,4.265-11.368,6.406q-6.367,3.6-12.726,7.218c-3.356,1.9-6.723,3.776-10.08,5.671q-4,2.26-7.995,4.54a20.7,20.7,0,0,1-2.291,1.169,6.735,6.735,0,0,1-.157-.956c-.012-2.11.018-4.221-.02-6.33a1.6,1.6,0,0,1,.941-1.578c1.822-1,3.63-2.015,5.441-3.031q4.4-2.467,8.79-4.94,4.526-2.539,9.056-5.071,3.45-1.932,6.9-3.865,4.48-2.52,8.956-5.048,6.158-3.469,12.319-6.933c4.081-2.288,8.173-4.558,12.254-6.847,3.419-1.919,6.829-3.856,10.244-5.782q3.315-1.87,6.636-3.728A8.975,8.975,0,0,1-1321.965,1655.053Z" transform="translate(-1082.961 -126.395)" fill="#6cae7e"/>
    <path id="Path_1825" data-name="Path 1825" d="M-1404.254,1850.315c-.057-.531-.119-.845-.121-1.16-.009-2.044.018-4.089-.017-6.133a1.556,1.556,0,0,1,.933-1.558c5.583-3.115,11.142-6.274,16.715-9.407,4.539-2.551,9.091-5.08,13.631-7.629,4.023-2.259,8.034-4.539,12.058-6.8,4.081-2.29,8.175-4.557,12.256-6.847,3.42-1.919,6.826-3.864,10.245-5.785q5.258-2.954,10.529-5.885,2.589-1.447,5.178-2.894c.22-.122.463-.2.835-.362a8.066,8.066,0,0,1,.149,1.027c.012,2.011-.01,4.023.016,6.035a1.362,1.362,0,0,1-.769,1.357c-1.788.989-3.555,2.016-5.334,3.021q-4.175,2.359-8.355,4.709-5.168,2.914-10.333,5.829c-2.668,1.509-5.328,3.031-8,4.539q-5.078,2.87-10.164,5.728c-2.669,1.507-5.33,3.027-8,4.535q-5.122,2.894-10.249,5.777c-2.668,1.508-5.328,3.031-8,4.539q-5.078,2.87-10.164,5.727c-.689.388-1.372.788-2.064,1.171C-1403.52,1849.992-1403.788,1850.1-1404.254,1850.315Z" transform="translate(-1082.975 -253.27)" fill="#ebc73a"/>
    <path id="Path_1826" data-name="Path 1826" d="M-1404.354,2532.544q0-11.666,0-23.332c0-1.594,0-1.6,1.581-1.6q4.548,0,9.1,0c.264,0,.527.006.791.014a.741.741,0,0,1,.792.813q.014.395.015.791,0,23.48,0,46.96c0,.1,0,.2,0,.3-.019,1.147-.092,1.229-1.254,1.231q-4.844.009-9.689,0c-1.265,0-1.329-.065-1.33-1.352Q-1404.357,2544.456-1404.354,2532.544Z" transform="translate(-1083.009 -894.605)"/>
    <path id="Path_1827" data-name="Path 1827" d="M-2530.508,3058.109a3.392,3.392,0,0,1,.518.323q4.489,4.734,8.967,9.477c1.535,1.631,3.042,3.288,4.567,4.927.215.231.465.43.873.8.023-.561.05-.907.051-1.252q0-5.934,0-11.868c0-1.473.031-1.5,1.488-1.491.2,0,.4.008.593.012a.639.639,0,0,1,.7.665c.016.263.021.527.021.791q0,9.3,0,18.594c0,.379-.045.757-.085,1.378a8.563,8.563,0,0,1-.824-.661c-1.3-1.4-2.575-2.822-3.882-4.215-1.555-1.658-3.144-3.285-4.7-4.942s-3.087-3.336-4.636-5c-.212-.228-.461-.423-.863-.786-.022.58-.047.928-.048,1.276q0,6.033,0,12.066c0,1.416-.045,1.456-1.429,1.452-.2,0-.4.009-.593-.011-.6-.06-.721-.187-.771-.8-.021-.262-.01-.527-.01-.791q0-9.248,0-18.5C-2530.573,3059.143-2530.536,3058.726-2530.508,3058.109Z" transform="translate(-68.213 -1390.634)"/>
    <path id="Path_1828" data-name="Path 1828" d="M-1882.577,3059.079a4.743,4.743,0,0,1,.627.457q4.2,4.46,8.391,8.929c1.786,1.893,3.592,3.768,5.392,5.648a3.745,3.745,0,0,0,.459.319c.024-.457.058-.8.058-1.141q.005-5.984,0-11.967c0-1.39.042-1.425,1.456-1.42.2,0,.4.006.593.009a.672.672,0,0,1,.743.732c.009.264.015.527.015.791q0,9.248,0,18.495a3.71,3.71,0,0,1-.229,1.254c-2.618-2.419-4.925-5.071-7.363-7.592s-4.792-5.129-7.183-7.7l-.208.063c-.018.344-.052.687-.053,1.03q-.006,5.934,0,11.868c0,1.649-.092,1.734-1.733,1.68-.952-.031-1.07-.132-1.071-1.11q-.01-9.742,0-19.483A7.7,7.7,0,0,1-1882.577,3059.079Z" transform="translate(-651.999 -1391.508)"/>
    <path id="Path_1829" data-name="Path 1829" d="M-1039.632,3066.552v1.047q0,6.033,0,12.066c0,1.4-.046,1.446-1.44,1.442-.165,0-.33.005-.494-.007-.677-.05-.8-.168-.858-.821-.021-.262-.01-.527-.01-.791q0-9.248,0-18.5c0-.417.039-.833.061-1.27.5-.068.683.24.893.467,1.32,1.426,2.619,2.872,3.952,4.285,1.74,1.846,3.517,3.657,5.257,5.5,1.287,1.366,2.537,2.767,3.809,4.147.26.282.546.54,1,.988.029-.588.061-.932.061-1.276q.005-5.786,0-11.572c0-.264-.007-.528,0-.791.037-.846.154-.961.987-1,1.785-.081,1.813-.054,1.813,1.757q0,9.1,0,18.2a4.332,4.332,0,0,1-.177,1.278c-2.587-2.428-4.934-5.021-7.321-7.576-2.4-2.571-4.825-5.122-7.239-7.681Z" transform="translate(-1409.117 -1392.081)"/>
    <path id="Path_1830" data-name="Path 1830" d="M-1261.1,3073.286a10.567,10.567,0,0,1-5.071,9.151,10.188,10.188,0,0,1-11.344-.593,10.56,10.56,0,0,1-4.073-7.3,10.552,10.552,0,0,1,4.089-10.041,9.613,9.613,0,0,1,11.285-.642A10.737,10.737,0,0,1-1261.1,3073.286Zm-10-8.232a7.183,7.183,0,0,0-5.354,1.948,8.622,8.622,0,0,0-.737,11.368,7.284,7.284,0,0,0,11.916-.452,8.265,8.265,0,0,0,1.263-6.7C-1264.846,3067.522-1267.7,3065.017-1271.1,3065.054Z" transform="translate(-1193.54 -1394.443)"/>
    <path id="Path_1831" data-name="Path 1831" d="M-2025.791,3079.133c2.036,2.963,4.14,5.649,6.137,8.618a6.8,6.8,0,0,1-3.06.059c-.344-.073-.646-.532-.886-.873-1.382-1.967-2.738-3.953-4.107-5.929a12.868,12.868,0,0,0-1-1.35c-.168-.185-.493-.228-.747-.336a2.128,2.128,0,0,0-.273.689c-.023,2.108-.015,4.216-.018,6.325,0,1.581-.029,1.607-1.592,1.584-1.133-.016-1.219-.094-1.22-1.262q-.006-9.043,0-18.085c0-.2.007-.4.017-.593a.626.626,0,0,1,.687-.674,32.46,32.46,0,0,1,6.108.226c4.833.986,5.825,6.735,3.013,9.812a8.881,8.881,0,0,1-2.051,1.334A10.042,10.042,0,0,1-2025.791,3079.133Zm-3.945-5.894h0c0,.923-.021,1.846.007,2.767.019.625.163.807.759.79a13,13,0,0,0,2.737-.26,3.108,3.108,0,0,0,2.391-3.224,2.993,2.993,0,0,0-2.351-3.129,16.349,16.349,0,0,0-2.726-.421c-.642-.062-.794.114-.813.81C-2029.754,3071.46-2029.736,3072.35-2029.736,3073.24Z" transform="translate(-516.961 -1398.893)"/>
    <path id="Path_1832" data-name="Path 1832" d="M-822.6,3079.825a5.247,5.247,0,0,1-2.526.076c-.3-.059-.6-.485-.759-.812-.495-1-.957-2.027-1.367-3.069a1.626,1.626,0,0,0-1.778-1.192c-2.272.069-4.549.051-6.822.008a1.462,1.462,0,0,0-1.595,1.007c-.429,1.069-.956,2.1-1.386,3.168a1.347,1.347,0,0,1-1.507.982c-.575-.048-1.155-.039-1.943-.062,1.618-3.741,3.281-7.234,4.889-10.752,1.6-3.494,3.162-7,4.941-10.708.309.514.513.792.655,1.1q1.359,2.911,2.694,5.833,1.956,4.268,3.9,8.54c.809,1.767,1.627,3.531,2.436,5.3A4.566,4.566,0,0,1-822.6,3079.825Zm-6.515-7.81c-1.072-2.425-2.023-4.82-3.208-7.171a38.3,38.3,0,0,0-3.181,7.249A27.2,27.2,0,0,0-829.112,3072.015Z" transform="translate(-1589.473 -1390.961)"/>
    <path id="Path_1833" data-name="Path 1833" d="M-1676.624,3060.791c.588.637,9.469,20.037,9.658,21.108a4.608,4.608,0,0,1-2.571.056c-.213-.049-.387-.422-.511-.679-.57-1.188-1.14-2.377-1.66-3.588a1.083,1.083,0,0,0-1.129-.75q-3.807.021-7.614,0a1.074,1.074,0,0,0-1.106.777c-.518,1.211-1.108,2.391-1.641,3.6a1.143,1.143,0,0,1-1.235.768,7.2,7.2,0,0,1-1.829-.113C-1686.191,3081.08-1677.294,3061.546-1676.624,3060.791Zm.121,6.113-.258.041c-.97,2.194-1.944,4.386-2.9,6.585a3.4,3.4,0,0,0-.107.786c2.162,0,4.235.077,6.5-.067Z" transform="translate(-828.995 -1393.051)"/>
    <path id="Path_1834" data-name="Path 1834" d="M-2180.667,3077.716q0-4.4,0-8.8c0-.263.008-.527.012-.791a.663.663,0,0,1,.746-.724c.165,0,.329-.01.494-.01q4.3,0,8.6,0c1.223,0,1.3.082,1.3,1.28,0,.2-.007.4-.01.593a.671.671,0,0,1-.748.726q-.395.012-.791.013c-1.878,0-3.757-.006-5.635,0-1.042.006-1.137.1-1.148,1.124-.011,1.087-.018,2.175,0,3.262.016.787.145.92.938.928,1.845.019,3.691.007,5.536.009q.445,0,.89.013a.671.671,0,0,1,.743.732q0,.148.009.3c.052,1.486-.027,1.57-1.5,1.572-1.845,0-3.691-.007-5.537,0-.988.006-1.074.091-1.081,1.078q-.018,2.669,0,5.339c.007.922.115,1.032,1.025,1.039,1.878.014,3.757.005,5.635.006.23,0,.461,0,.692,0a2.051,2.051,0,0,1,.394.03c.515.113.584.271.584,1.275s-.071,1.168-.59,1.268a3.662,3.662,0,0,1-.689.034q-4.3,0-8.6,0-.3,0-.593-.02a.638.638,0,0,1-.665-.7c-.006-.264-.013-.527-.013-.791Q-2180.667,3082.115-2180.667,3077.716Z" transform="translate(-383.504 -1398.997)"/>
    <path id="Path_1835" data-name="Path 1835" d="M-2327.91,3078.9c0-2.538,0-5.075,0-7.612,0-1.206-.068-1.264-1.3-1.272-.857-.006-1.714.015-2.57-.013-.717-.024-.837-.17-.886-.893-.106-1.582.008-1.708,1.562-1.709q4.7,0,9.392,0c.263,0,.527,0,.79.013a.734.734,0,0,1,.381.079c.662.5.313,1.208.351,1.83.03.5-.332.676-.781.68-.824.008-1.648.008-2.471.01-1.486,0-1.49,0-1.491,1.482q0,7.365,0,14.73c0,.263.007.527,0,.791-.035.854-.152.973-.973,1.014-1.929.1-1.992.037-1.992-1.915Q-2327.911,3082.5-2327.91,3078.9Z" transform="translate(-246.51 -1399.002)"/>
    <path id="Path_1836" data-name="Path 1836" d="M-1486.037,3078.98q0-3.7,0-7.41c0-1.558,0-1.557-1.607-1.56-.757,0-1.516.017-2.272-.012-.722-.028-.839-.169-.888-.891-.106-1.59,0-1.71,1.557-1.71q4.693,0,9.386,0c.231,0,.461,0,.692.007a.976.976,0,0,1,.389.049c.805.406.393,1.155.459,1.759a.638.638,0,0,1-.678.779c-.526.015-1.054,0-1.58.023-.812.042-1.623.109-2.435.165a5.138,5.138,0,0,0-.193,2.516c-.028,4.61-.012,9.221-.014,13.832,0,1.48-.031,1.508-1.474,1.5-.2,0-.4-.006-.593-.01a.672.672,0,0,1-.736-.739c-.007-.263-.012-.527-.013-.79Q-1486.038,3082.735-1486.037,3078.98Z" transform="translate(-1005.085 -1399.002)"/>
    <path id="Path_1837" data-name="Path 1837" d="M-626.583,3077.663q0-4.351,0-8.7,0-.445.015-.89a.639.639,0,0,1,.662-.7c.033,0,.066-.008.1-.009,2.271-.056,2.036-.031,2.038,1.823q.005,7.367,0,14.735c0,1.448,0,1.45,1.408,1.453,1.253,0,2.505-.013,3.758.009.836.015.947.152.982,1,.063,1.532-.005,1.6-1.57,1.605q-2.967,0-5.933,0c-1.43,0-1.458-.028-1.46-1.421Q-626.587,3082.113-626.583,3077.663Z" transform="translate(-1783.827 -1398.958)"/>
    <path id="Path_1838" data-name="Path 1838" d="M-2601.82,3077.661q0,4.348,0,8.7c0,.3,0,.593-.016.889a.642.642,0,0,1-.665.7c-.032,0-.066.005-.1.009-1.86.207-2.035.051-2.035-1.824q0-8.647,0-17.294c0-1.5.029-1.523,1.567-1.5a1.751,1.751,0,0,1,.682.047,1.021,1.021,0,0,1,.5.507,2.728,2.728,0,0,1,.058.88Q-2601.818,3073.214-2601.82,3077.661Z" transform="translate(-1.482 -1398.937)"/>
    <path id="Path_1839" data-name="Path 1839" d="M-1333.917,3077.749q0,4.3,0,8.6c0,.3,0,.593-.016.889a.644.644,0,0,1-.663.7c-.033,0-.066.005-.1.009-1.859.209-2.04.049-2.04-1.819q0-8.648,0-17.3c0-1.5.03-1.526,1.563-1.508a1.76,1.76,0,0,1,.683.046,1.019,1.019,0,0,1,.509.5,2.686,2.686,0,0,1,.06.88Q-1333.914,3073.253-1333.917,3077.749Z" transform="translate(-1143.938 -1398.931)"/>
  </g>
</svg>
