<svg xmlns="http://www.w3.org/2000/svg" width="234.43" height="46.516" viewBox="0 0 234.43 46.516">
  <g id="Group_1174" data-name="Group 1174" transform="translate(-1727.511 -6220.152)">
    <path id="Path_1868" data-name="Path 1868" d="M1738.811,6237.725q0,8.188,0,16.376c0,1.019-.014,1.032-1.044,1.033q-4.664,0-9.327,0c-.886,0-.928-.043-.928-.934q0-16.554,0-33.108c0-.879.046-.925.936-.925,3.156,0,6.313.014,9.469-.013.688-.006.907.229.9.911C1738.8,6226.617,1738.811,6232.171,1738.811,6237.725Z" fill="#0b3879"/>
    <path id="Path_1869" data-name="Path 1869" d="M2151.3,6286.7q0,5.661,0,11.322c0,.927-.041.968-.962.968q-4.7,0-9.4,0c-.891,0-.931-.041-.931-.928q0-11.393,0-22.786c0-.927.042-.968.963-.969q4.7,0,9.4,0c.885,0,.93.045.93.928Q2151.306,6280.967,2151.3,6286.7Z" transform="translate(-334.133 -43.865)" fill="#0b3879"/>
    <path id="Path_1870" data-name="Path 1870" d="M1866.257,6287.229q0-5.623,0-11.246c0-1,.025-1.022.981-1.023q4.662,0,9.324,0c.952,0,.987.035.988.945q0,11.353,0,22.706c0,.864-.052.916-.944.916q-4.7,0-9.4,0c-.913,0-.952-.043-.953-.98Q1866.255,6292.888,1866.257,6287.229Z" transform="translate(-112.387 -44.394)" fill="#0b3879"/>
    <path id="Path_1871" data-name="Path 1871" d="M1795.757,6287.17q0-5.625,0-11.25c0-.916.042-.958.974-.959q4.7,0,9.4,0c.877,0,.923.048.924.94,0,2.279-.049,4.559.021,6.835a3.168,3.168,0,0,1-1.411,2.779c-1.51,1.156-1.553,1.212-.095,2.3a3.531,3.531,0,0,1,1.508,3.228c-.078,2.538-.037,5.079-.013,7.619.006.644-.214.88-.867.876q-4.771-.034-9.542,0c-.678.005-.917-.212-.912-.9C1795.77,6294.813,1795.757,6290.991,1795.757,6287.17Z" transform="translate(-55.271 -44.394)" fill="#0b3879"/>
    <path id="Path_1872" data-name="Path 1872" d="M2206.758,6286.6q0-5.658,0-11.316c0-.937.041-1.005.952-.972a51.745,51.745,0,0,1,5.379.292,5.642,5.642,0,0,1,4.947,5.71c.053,5.978.017,11.956.029,17.934,0,.558-.231.749-.771.747-3.25-.013-6.5-.018-9.75,0-.652,0-.8-.289-.794-.869C2206.765,6294.291,2206.758,6290.448,2206.758,6286.6Z" transform="translate(-388.194 -43.87)" fill="#0b3879"/>
    <path id="Path_1873" data-name="Path 1873" d="M2289.251,6287.271q0,5.554,0,11.108c0,1.092,0,1.108-1.124,1.09-1.7-.027-3.424.049-5.111-.147a5.232,5.232,0,0,1-4.883-4.6,7.188,7.188,0,0,1-.167-1.407c-.012-4.2-.034-8.4.008-12.6a5.918,5.918,0,0,1,1.573-4.156,5.251,5.251,0,0,1,3.82-1.626c1.66-.054,3.323.005,4.984-.032.678-.015.918.211.913.9C2289.238,6279.628,2289.251,6283.45,2289.251,6287.271Z" transform="translate(-445.867 -44.348)" fill="#0b3879"/>
    <path id="Path_1874" data-name="Path 1874" d="M2344.021,6287.2q0-5.66,0-11.32c0-.891.046-.94.92-.942,1.566,0,3.133-.018,4.7.007,3.5.055,5.526,2.279,5.633,5.6.14,4.362.17,8.737-.008,13.1-.149,3.634-2.24,5.647-5.874,5.837-1.515.08-3.037,0-4.556.027-.625.012-.825-.234-.823-.843C2344.03,6294.843,2344.021,6291.022,2344.021,6287.2Z" transform="translate(-499.379 -44.373)" fill="#0b3879"/>
    <path id="Path_1875" data-name="Path 1875" d="M2013.985,6287.2q0,5.626,0,11.251c0,1.01-.014,1.037-1.051,1.02a51.582,51.582,0,0,1-5.182-.149,5.35,5.35,0,0,1-4.912-4.983,17.017,17.017,0,0,1-.142-2.122c-.013-3.727-.057-7.454.03-11.179a8.878,8.878,0,0,1,.726-3.147,4.863,4.863,0,0,1,4.647-2.951c1.658-.076,3.323,0,4.984-.035.679-.016.917.209.913.9C2013.971,6279.6,2013.985,6283.4,2013.985,6287.2Z" transform="translate(-222.889 -44.347)" fill="#0b3879"/>
    <path id="Path_1876" data-name="Path 1876" d="M2069.456,6287.155q0-5.624,0-11.248c0-.917.044-.958.975-.959,1.495,0,2.99-.011,4.485,0,3.266.033,5.52,1.978,5.665,5.24.187,4.213.168,8.438.14,12.657a10,10,0,0,1-.627,3.108,4.821,4.821,0,0,1-4.344,3.381c-1.881.184-3.785.12-5.679.165-.584.014-.619-.377-.618-.817q.007-3.275,0-6.549Q2069.456,6289.646,2069.456,6287.155Z" transform="translate(-276.982 -44.382)" fill="#0b3879"/>
    <path id="Path_1877" data-name="Path 1877" d="M1933.672,6281.1q0-2.669,0-5.338c0-.39.057-.757.547-.738a52.9,52.9,0,0,1,6.3.326,5.159,5.159,0,0,1,4.179,5.073c.063,1.965.089,3.931.161,5.9.024.654-.226.871-.873.867q-4.734-.034-9.467,0c-.67.005-.862-.26-.852-.889C1933.69,6284.566,1933.672,6282.834,1933.672,6281.1Z" transform="translate(-166.987 -44.448)" fill="#0b3879"/>
    <path id="Path_1878" data-name="Path 1878" d="M2565.259,6292.973q0,8.512,0,17.024c0,.984-.028,1.012-.991,1.012-3.134,0-6.269-.015-9.4.013-.677.006-.918-.2-.917-.9q.024-17.167,0-34.333c0-.714.277-.888.933-.883,3.11.023,6.221.009,9.332.011,1.033,0,1.047.015,1.047,1.03Q2565.26,6284.461,2565.259,6292.973Zm-9.979-.143c0,5.271.01,10.543-.012,15.814,0,.668.188.927.884.917q3.454-.048,6.909,0c.679.009.895-.214.893-.9q-.028-15.743,0-31.487c0-.747-.268-.93-.951-.921-2.255.028-4.512.007-6.767.012-.932,0-.958.032-.958.965Q2555.278,6285.03,2555.28,6292.83Z" transform="translate(-669.432 -44.354)" fill="#0b3879"/>
    <path id="Path_1879" data-name="Path 1879" d="M2426.5,6278.548c0,.783,0,1.566,0,2.35a1.742,1.742,0,0,0,1.412,2.011c1.4.441,2.831.778,4.245,1.174,1.594.447,3.223.8,4.764,1.392a4.2,4.2,0,0,1,2.822,4.27c-.014,1.7.023,3.42-.153,5.111a4.665,4.665,0,0,1-4.66,4.5c-1.865.131-3.741.107-5.611.169-.573.019-.738-.256-.732-.783.016-1.685.007-3.37.005-5.056,0-1.514-.275-1.886-1.7-2.258q-3.645-.951-7.293-1.883c-1.871-.475-3.439-1.386-3.714-3.438a41.056,41.056,0,0,1-.162-5.308,7.922,7.922,0,0,1,.255-1.895,4.668,4.668,0,0,1,4.433-3.766c1.792-.148,3.6-.119,5.4-.178.533-.017.707.247.7.744C2426.484,6276.649,2426.5,6277.6,2426.5,6278.548Zm3.143,16.512h0c0,.831.017,1.662-.006,2.493-.015.567.185.824.787.793,1.4-.071,2.793-.093,4.189-.152a3.57,3.57,0,0,0,3.775-3.334c.206-1.756.119-3.547.155-5.322a1.44,1.44,0,0,0-.077-.345c-.454-1.918-1.855-2.752-3.621-3.192-2.574-.643-5.153-1.267-7.709-1.974-1.59-.44-1.952-1.022-1.956-2.682,0-1.52-.023-3.04.01-4.558.013-.6-.21-.817-.787-.78-1.016.064-2.039.054-3.049.168-2.652.3-3.9,1.389-4.318,4.009a30.045,30.045,0,0,0-.193,4.536c-.009,2,1.143,3.112,2.98,3.631.844.238,1.685.483,2.529.72,1.894.53,3.8,1.035,5.68,1.593a1.918,1.918,0,0,1,1.605,2.189C2429.643,6293.588,2429.64,6294.324,2429.64,6295.06Z" transform="translate(-557.457 -44.391)" fill="#0b3879"/>
    <path id="Path_1880" data-name="Path 1880" d="M2764.058,6287.157q0-5.659,0-11.318c0-.87.052-.924.937-.925,3.156,0,6.312.014,9.467-.013.688-.006.907.23.905.912q-.026,11.389,0,22.778c0,.691-.237.908-.915.9-3.156-.026-6.312-.01-9.467-.013-.88,0-.927-.051-.928-.934Q2764.056,6292.851,2764.058,6287.157Zm10.106.111c0-3.4-.012-6.792.01-10.187,0-.648-.205-.865-.865-.855q-3.562.051-7.124,0c-.633-.008-.82.22-.819.828q.021,10.188,0,20.375c0,.648.211.877.865.87q3.526-.042,7.052,0c.7.01.9-.249.892-.916C2774.151,6294.013,2774.164,6290.641,2774.164,6287.269Z" transform="translate(-839.626 -44.348)" fill="#0b3879"/>
    <path id="Path_1881" data-name="Path 1881" d="M2901.962,6286.667q0-5.7,0-11.391c0-.92.05-.993.969-.959a50.812,50.812,0,0,1,5.31.288,5.547,5.547,0,0,1,4.874,5.015,14.85,14.85,0,0,1,.149,2.05q.018,8.116.007,16.233c0,1.089,0,1.091-1.054,1.091q-4.663,0-9.327,0c-.881,0-.926-.044-.927-.935Q2901.959,6292.363,2901.962,6286.667Zm1.193-.022c0,3.442,0,6.883,0,10.325,0,.512.064.862.721.855,2.421-.025,4.842-.017,7.263,0,.485,0,.677-.179.677-.67-.011-5.578.066-11.157-.047-16.733-.049-2.427-1.251-4.332-3.985-4.67a33.686,33.686,0,0,0-3.618-.121c-.992-.016-1,.006-1.006.979Q2903.152,6281.625,2903.155,6286.645Z" transform="translate(-951.331 -43.87)" fill="#0b3879"/>
    <path id="Path_1882" data-name="Path 1882" d="M2846.345,6286.634q0,5.664,0,11.327c0,.938-.039.977-.956.978q-4.631,0-9.261,0c-.9,0-.955-.048-.955-.906q0-11.435-.012-22.868c0-.669.2-.928.9-.921q4.7.043,9.4,0c.7-.007.9.252.9.921C2846.333,6278.987,2846.345,6282.811,2846.345,6286.634Zm-1.194.025c0-3.417-.01-6.833.01-10.25,0-.618-.216-.84-.828-.834q-3.594.031-7.189,0c-.583,0-.789.22-.788.8q.019,10.285,0,20.57c0,.615.207.832.828.825,2.348-.027,4.7-.035,7.046,0,.722.012.941-.229.936-.939C2845.136,6293.444,2845.152,6290.052,2845.151,6286.659Z" transform="translate(-897.22 -43.815)" fill="#0b3879"/>
    <path id="Path_1883" data-name="Path 1883" d="M2622.25,6287.232q0-5.66,0-11.321c0-.922.04-.962.969-.963,1.566,0,3.133-.013,4.7.006a5.387,5.387,0,0,1,5.6,5.345c.123,4.052.148,8.108.133,12.163a8.72,8.72,0,0,1-.856,4.068,5.539,5.539,0,0,1-5.014,2.955c-1.562.08-3.133,0-4.7.032-.675.016-.849-.267-.845-.893C2622.26,6294.827,2622.25,6291.029,2622.25,6287.232Zm1.331.068q0,5.089,0,10.177c0,.444-.009.868.644.856,1.281-.024,2.564.037,3.842-.025a3.909,3.909,0,0,0,4-3.521,31.561,31.561,0,0,0,.266-4.737c0-3.246,0-6.5-.142-9.737a3.836,3.836,0,0,0-3.681-3.9c-1.322-.083-2.648-.1-3.973-.121-.919-.014-.959.039-.96.969Q2623.576,6282.283,2623.581,6287.3Z" transform="translate(-724.751 -44.382)" fill="#0b3879"/>
    <path id="Path_1884" data-name="Path 1884" d="M2706.2,6331.411c0,2.255-.016,4.51.01,6.765.008.644-.212.9-.867.875a56.984,56.984,0,0,1-5.749-.173,5.1,5.1,0,0,1-4.661-5.177,27.764,27.764,0,0,1,.133-5.391,5.168,5.168,0,0,1,5.326-4.555c1.661-.021,3.323.014,4.984-.014.621-.01.838.223.832.835C2706.183,6326.854,2706.2,6329.133,2706.2,6331.411Zm-1.194.047c0-1.875-.014-3.75.008-5.625.007-.58-.193-.8-.787-.783-1.352.034-2.706,0-4.058.014a3.782,3.782,0,0,0-3.806,3.013,16.515,16.515,0,0,0-.11,5.865,3.839,3.839,0,0,0,3.694,3.759c1.383.159,2.791.083,4.185.157.7.037.9-.257.886-.918C2704.983,6335.113,2705,6333.286,2705,6331.458Z" transform="translate(-783.574 -83.908)" fill="#0b3879"/>
    <path id="Path_1885" data-name="Path 1885" d="M2700.606,6282.211c-1.614,0-3.228-.016-4.841.008-.592.008-.823-.225-.779-.8a7.248,7.248,0,0,1,1.9-4.917,6.064,6.064,0,0,1,4.087-1.567c1.513-.1,3.037-.017,4.555-.038.54-.008.775.193.77.75q-.025,2.919,0,5.838c0,.566-.249.743-.781.737C2703.881,6282.2,2702.244,6282.211,2700.606,6282.211Zm.184-1.172c1.185,0,2.37-.018,3.554.008.546.012.773-.184.763-.739-.022-1.185-.026-2.37,0-3.554.014-.581-.2-.825-.786-.8-1.322.06-2.65.042-3.967.158a4.241,4.241,0,0,0-3.905,4.164c-.022.539.14.782.715.77C2698.373,6281.02,2699.582,6281.039,2700.79,6281.039Z" transform="translate(-783.672 -44.333)" fill="#0b3879"/>
    <path id="Path_1886" data-name="Path 1886" d="M2489.184,6282.474c-1.636,0-3.272-.015-4.908.008-.577.008-.81-.2-.8-.787.02-1.967.009-3.936.006-5.9,0-.38.027-.769.523-.756a52.334,52.334,0,0,1,6.161.246c2.56.372,3.951,2.148,4.465,4.627.12.577.185,1.166.272,1.75.084.567-.126.832-.737.823C2492.5,6282.459,2490.843,6282.474,2489.184,6282.474Zm-.121-1.177c1.231,0,2.463-.006,3.695,0,.452,0,.721-.128.7-.646-.075-2.02-1.013-3.9-3.213-4.269a41.241,41.241,0,0,0-5.081-.293c-.468-.019-.488.363-.489.707,0,1.255.011,2.511-.008,3.766-.009.556.23.751.77.741C2486.646,6281.282,2487.854,6281.3,2489.063,6281.3Z" transform="translate(-612.345 -44.457)" fill="#0b3879"/>
    <path id="Path_1887" data-name="Path 1887" d="M2421.122,6364.973c1.517,0,3.034.018,4.551-.009.6-.01.853.191.845.819-.026,1.943-.011,3.887-.008,5.831,0,.4,0,.816-.552.8a44.566,44.566,0,0,1-5.522-.225,5.188,5.188,0,0,1-4.5-4.657c-.113-.625-.088-1.274-.191-1.9-.089-.541.139-.668.615-.664C2417.945,6364.98,2419.533,6364.973,2421.122,6364.973Zm.119,1.175c-1.258,0-2.516,0-3.775,0-.354,0-.633.076-.6.5.169,2.268,1.009,4.077,3.653,4.434a42.648,42.648,0,0,0,4.469.161c.429.012.492-.268.491-.614,0-1.258-.027-2.518.01-3.774.018-.589-.224-.726-.757-.713C2423.568,6366.167,2422.4,6366.147,2421.241,6366.148Z" transform="translate(-557.468 -117.3)" fill="#0b3879"/>
  </g>
</svg>
