<svg xmlns="http://www.w3.org/2000/svg" width="233.43" height="38.386" viewBox="0 0 233.43 38.386">
  <g id="Group_1176" data-name="Group 1176" transform="translate(94.893 335.903)">
    <path id="Path_1918" data-name="Path 1918" d="M-94.893-335.848l36.94.095c.918,0,1.835,0,3.141,0v38.24h-40.08Zm14.134,3.57c-3.034,0-5.769-.052-8.5.047-.5.018-1.381.638-1.395,1-.115,3-.064,6-.064,9.052h9.958Zm.93,10.078h9.9v-9.911h-9.9Zm20.725.056v-9.938h-9.781v9.938Zm-21.56,10.1c0-3,.043-5.78-.047-8.551-.013-.412-.639-1.142-1-1.154-2.931-.095-5.868-.053-9.037-.053,0,3.05-.055,5.759.055,8.462a1.746,1.746,0,0,0,1.167,1.238C-86.665-311.989-83.8-312.042-80.663-312.042Zm-10.077.822c0,2.977-.045,5.7.047,8.418.014.422.634,1.17.993,1.182,2.946.1,5.9.054,8.878.054v-9.655ZM-70-310.036c.586-2.887,1.156-5.44,1.582-8.017.088-.529-.262-1.574-.588-1.649-2.893-.664-5.826-1.163-8.962-1.751l-1.814,9.622Z" transform="translate(0 -0.004)" fill="#fe0000"/>
    <path id="Path_1919" data-name="Path 1919" d="M12.51-295.929a29.355,29.355,0,0,1-3.155-1.544c-4.047-2.593-3.805-9.788-1.3-12.388a8.606,8.606,0,0,1,4.559-2.358,68.463,68.463,0,0,1,9.546-.54c5.731-.073,11.471-.2,17.19.059a26.227,26.227,0,0,1,8.194,1.75c3.186,1.243,3.621,4.484,3.445,7.226-.3,4.614-2.111,6.426-5.973,7.349-.176.042-.3.293-.446.446Zm16.02-3.615c3.691,0,7.383.045,11.073-.023a18.738,18.738,0,0,0,4.12-.517c2.225-.552,3.179-2.594,2.766-5.526a3.834,3.834,0,0,0-3.912-3.122q-14.018-.032-28.036,0A3.838,3.838,0,0,0,10.6-305.64c-.412,2.819.452,4.856,2.52,5.472a14.738,14.738,0,0,0,3.87.6C20.834-299.492,24.683-299.54,28.531-299.544Z" transform="translate(-6.968 -1.588)"/>
    <path id="Path_1920" data-name="Path 1920" d="M-43.744-295.923q.018-5.817.038-11.636c.01-2.631,1.175-4.19,3.734-4.688a26.158,26.158,0,0,1,4.854-.5q16.149-.066,32.3-.009a4.82,4.82,0,0,1,2.228.416c.605.333,1.439,1.153,1.346,1.6A3.374,3.374,0,0,1-.8-308.85c-.521.309-1.375.111-2.081.111q-16.5.006-33.007,0c-3.726,0-4.249.558-4.008,4.633h2.441q11.317,0,22.633.012c3.166,0,3.255.12,2.906,3.725H-39.972v4.442Z" transform="translate(-3.524 -1.593)"/>
    <path id="Path_1921" data-name="Path 1921" d="M108.15-295.924a15.2,15.2,0,0,1-.414-2.4c-.047-2.961-.021-5.924-.009-8.885.013-2.872,1.3-4.519,4.155-5.029a31.3,31.3,0,0,1,5.314-.509q12.946-.075,25.893,0a23.658,23.658,0,0,1,5.3.556c3.071.734,3.8,3.264,3.986,5.848a81.246,81.246,0,0,1,.02,8.426,6.1,6.1,0,0,1-.866,2h-2.358a12.65,12.65,0,0,1-.862-2.9c-.127-2.422.115-4.869-.127-7.274-.09-.9-1.079-2.423-1.715-2.451-4.728-.209-9.472-.114-14.308-.114,0,3.475.07,6.66-.042,9.838a11.83,11.83,0,0,1-.864,2.9H128.9a11.9,11.9,0,0,1-.861-2.91c-.11-3.237-.041-6.481-.041-9.9-4.279,0-8.267,0-12.255,0-3.49,0-4.141.575-4.312,4.025-.075,1.517.043,3.042-.031,4.559-.068,1.413-.273,2.82-.418,4.23Z" transform="translate(-13.959 -1.593)"/>
    <path id="Path_1922" data-name="Path 1922" d="M57.034-295.923q.027-5.584.054-11.169c.016-3,1.153-4.534,4.038-5.11a26.821,26.821,0,0,1,5.077-.544q15.663-.074,31.328-.015c1.721,0,4.136-.325,4.118,2.046-.019,2.428-2.443,1.97-4.174,1.972q-16.135.021-32.271.007c-3.626,0-4.331.609-4.418,4.152-.072,2.885.007,5.774.02,8.661Z" transform="translate(-10.468 -1.593)"/>
    <path id="Path_1923" data-name="Path 1923" d="M131.844-319.456c-5.5,0-10.993-.018-16.489.007-6.584.031-8.674-4.885-8-9.626s3.536-6.729,8.55-6.733q15.193-.011,30.386.007c4.314.011,6.831,3.489,5.1,7.156-.957,2.035-2.888,2.8-5.155,2.8q-12.131-.007-24.262,0c-1.266,0-2.574.228-2.534-1.723.037-1.8,1.219-1.844,2.526-1.844q11.425-.007,22.849-.007a6.315,6.315,0,0,0,1.869-.07c.42-.135.975-.661.981-1.022a1.821,1.821,0,0,0-.771-1.356,3.546,3.546,0,0,0-1.777-.345c-9.422-.02-18.845-.046-28.266,0-4.351.021-6.514,2.984-4.987,6.692.858,2.087,2.722,2.483,4.743,2.485q15.9.021,31.8.007c.549,0,1.245-.2,1.617.051.726.488,1.656,1.157,1.8,1.881.2,1-.511,1.682-1.846,1.668C143.936-319.494,137.889-319.458,131.844-319.456Z" transform="translate(-13.927 -0.006)"/>
    <path id="Path_1924" data-name="Path 1924" d="M79.7-323.364c-1.466,3.615-4.127,4.1-7.372,3.953-4.235-.193-8.485-.062-12.728-.038-1.225.007-2.537.048-2.449-1.568.077-1.4,1.121-2.025,2.565-2.021,3.929.009,7.858,0,11.787,0a5.457,5.457,0,0,0,5.34-4.082c.38-1.75-2.787-5.094-4.9-5.108-4.087-.029-8.175-.086-12.257.033-1.48.042-2.439-.56-2.465-1.757-.031-1.355.976-1.939,2.543-1.9,4.633.109,9.285.25,13.9-.034,3.154-.194,4.571,1.576,6.121,4.206,1.453-4.2,4.649-4.261,8.033-4.159,3.768.114,7.543.051,11.315.014,1.406-.015,2.637.24,2.605,1.848-.032,1.627-1.338,1.763-2.7,1.753q-6.011-.043-12.022,0c-2.98.025-5.238,3.723-3.945,6.312.98,1.961,2.156,3.159,4.781,2.953,3.748-.294,7.538-.051,11.309-.087,1.414-.013,2.574.264,2.59,1.879.016,1.683-1.208,1.749-2.569,1.731-3.928-.052-7.862-.128-11.786.015C84.11-319.305,81.085-319.408,79.7-323.364Z" transform="translate(-10.476)"/>
    <path id="Path_1925" data-name="Path 1925" d="M46.991-323.034c0-3.645.026-6.978-.012-10.309-.018-1.527.473-2.447,2.245-2.476,1.846-.03,1.924,1.129,1.925,2.406,0,4.549,0,9.1,0,13.838-.891.046-1.645.116-2.4.117q-18.135.01-36.27,0c-3.98,0-6.04-1.965-6.047-5.75q-.008-4.216.007-8.434c.006-1.232.232-2.252,1.922-2.19,1.57.059,2.255.765,2.243,2.258-.021,2.735.02,5.47-.007,8.206-.015,1.467.615,2.325,2.184,2.327C24.074-323.029,35.367-323.034,46.991-323.034Z" transform="translate(-6.981 -0.005)"/>
    <path id="Path_1926" data-name="Path 1926" d="M.231-319.448c-13,0-26.032.048-39.068-.034-3.167-.02-4.841-1.964-4.855-5.074-.017-3.64,0-7.28,0-11.079h3.689c0,2.772,0,5.627,0,8.482.006,3.742.412,4.134,4.275,4.134q16.733,0,33.467.006C.7-323.011,1.275-322.2.231-319.448Z" transform="translate(-3.527 -0.018)"/>
    <path id="Path_1927" data-name="Path 1927" d="M-80.451-332.015v10.1h-9.958c0-3.053-.05-6.056.064-9.052.014-.366.9-.986,1.395-1C-86.22-332.067-83.484-332.015-80.451-332.015Z" transform="translate(-0.308 -0.267)" fill="#fff"/>
    <path id="Path_1928" data-name="Path 1928" d="M-78.714-321.923v-9.911h9.9v9.911Z" transform="translate(-1.115 -0.28)" fill="#fff"/>
    <path id="Path_1929" data-name="Path 1929" d="M-57.179-321.865H-66.96V-331.8h9.781Z" transform="translate(-1.925 -0.282)" fill="#fff"/>
    <path id="Path_1930" data-name="Path 1930" d="M-80.357-311c-3.133,0-6,.053-8.863-.058a1.746,1.746,0,0,1-1.167-1.238c-.11-2.7-.055-5.412-.055-8.462,3.169,0,6.106-.042,9.037.053.362.011.988.742,1,1.154C-80.314-316.783-80.357-314.007-80.357-311Z" transform="translate(-0.306 -1.043)" fill="#fff"/>
    <path id="Path_1931" data-name="Path 1931" d="M-90.434-309.4h9.918v9.655c-2.981,0-5.932.043-8.878-.054-.359-.012-.98-.761-.993-1.182C-90.479-303.7-90.434-306.42-90.434-309.4Z" transform="translate(-0.306 -1.826)" fill="#fff"/>
    <path id="Path_1932" data-name="Path 1932" d="M-68.887-308.971l-9.782-1.8,1.814-9.622c3.136.588,6.069,1.088,8.962,1.751.327.075.676,1.12.588,1.649C-67.73-314.411-68.3-311.858-68.887-308.971Z" transform="translate(-1.118 -1.069)" fill="#fff"/>
  </g>
</svg>
