<?xml version="1.0" encoding="utf-8"?>
<!-- Generator: Adobe Illustrator 22.1.0, SVG Export Plug-In . SVG Version: 6.00 Build 0)  -->
<svg version="1.1" id="Layer_1" xmlns="http://www.w3.org/2000/svg" xmlns:xlink="http://www.w3.org/1999/xlink" x="0px" y="0px"
	 viewBox="0 0 224.5 86.1" style="enable-background:new 0 0 224.5 86.1;" xml:space="preserve">
<style type="text/css">
	.st0{fill:#D0281F;}
</style>
<g>
	<path d="M0,3.6c7.6,0,15.2,0,22.8,0c2.7,13.7,5.3,27.4,8,41.1c0.1,0,0.2,0,0.3,0C33.4,31,35.7,17.4,38,3.6c8,0,15.8,0,23.7,0
		c0,26.9,0,53.8,0,80.8c-5.2,0-10.4,0-15.7,0c0-14.6,0-29.2,0-43.9c-0.1,0-0.2,0-0.4,0c-3,14.6-5.9,29.2-9,44c-2.9,0-5.8,0-8.6,0
		c-3.6,0-3.6,0-4.5-3.6c-3.1-13.1-6.2-26.3-9.3-39.5c-0.1-0.4-0.2-0.8-0.6-1.2c0,14.7,0,29.3,0,44.1c-4.6,0-9.2,0-13.8,0
		C0,57.5,0,30.6,0,3.6z"/>
	<path d="M87.3,19c5.4,0,10.6,0,15.9,0c0,21.8,0,43.6,0,65.4c-5.3,0-10.5,0-15.8,0c-0.1-0.6-0.2-1.2-0.3-1.8
		c-4.1,3-8.6,3.3-13.2,2.4c-1.6-0.3-3.2-1.1-4.6-2c-2.6-1.6-3.7-4.1-3.7-7.2c0-7.8,0-15.5,0-23.2c0-10.6,0-21.2,0-31.9
		c0-0.6,0-1.2,0-1.8c5.4,0,10.6,0,16,0c0,0.7,0,1.2,0,1.9c0,16.7,0,33.4,0,50.1c0,0.6,0,1.2,0.1,1.7c0.2,1.7,1.2,2.6,2.8,2.6
		c1.7,0,2.6-0.9,2.8-2.7c0-0.5,0-1,0-1.5c0-16.7,0-33.4,0-50.1C87.3,20.4,87.3,19.8,87.3,19z"/>
	<path d="M186.9,19c6.8,0,13.5-0.1,20.1,0c2.7,0.1,5.3,0.5,8,0.9c1.3,0.2,2.5,0.7,3.7,1.2c3.7,1.7,5.6,4.6,5.8,8.6
		c0.1,3.2,0.1,6.3,0,9.5c-0.2,4-2.4,6.7-5.9,8.4c-0.8,0.4-1.6,0.7-2.7,1.2c1,0.4,1.7,0.6,2.5,0.9c3.9,1.7,6.1,4.6,6.1,8.9
		c0.1,8.3,0,16.7,0,25c0,0.3-0.1,0.6-0.1,0.9c-5.3,0-10.5,0-15.9,0c0-0.6-0.1-1.1-0.1-1.7c0-8.3-0.1-16.6,0.1-24.8
		c0.1-3.7-2-5-5.6-4.9c0,10.4,0,20.7,0,31.2c-5.4,0-10.7,0-16,0C186.9,62.6,186.9,40.9,186.9,19z M202.9,44.9
		c3.8,0.3,5.5-1.2,5.5-4.8c0-2.7-0.2-5.5,0.1-8.2c0.3-3.3-2.8-4.9-5.5-4.3C202.9,33.4,202.9,39.2,202.9,44.9z"/>
	<path d="M107.1,3.6c5.3,0,10.6,0,15.9,0c0,27,0,53.8,0,80.8c-5.3,0-10.6,0-15.9,0C107.1,57.5,107.1,30.6,107.1,3.6z"/>
	<path d="M127,3.6c5.4,0,10.6,0,15.9,0c0,27,0,53.8,0,80.8c-5.2,0-10.5,0-15.9,0C127,57.5,127,30.6,127,3.6z"/>
	<path class="st0" d="M182.6,34.9c-11.9,0-23.7,0-35.7,0c0-5.3,0-10.5,0-15.8c11.9,0,23.7,0,35.7,0
		C182.6,24.4,182.6,29.5,182.6,34.9z"/>
	<path class="st0" d="M146.9,59.7c0-5.2,0-10.4,0-15.7c11.9,0,23.8,0,35.8,0c0,5.2,0,10.4,0,15.7C170.7,59.7,158.9,59.7,146.9,59.7z
		"/>
	<path class="st0" d="M146.9,84.3c0-5.2,0-10.4,0-15.7c11.9,0,23.7,0,35.7,0c0,5.2,0,10.4,0,15.7C170.8,84.3,158.9,84.3,146.9,84.3z
		"/>
	<path d="M65.7,3.6c5.4,0,10.6,0,15.8,0c0,3.3,0,6.4,0,9.7c-5.3,0-10.5,0-15.8,0C65.7,10,65.7,6.8,65.7,3.6z"/>
	<path d="M87.4,13.3c0-3.3,0-6.4,0-9.6c5.3,0,10.5,0,15.8,0c0,3.2,0,6.4,0,9.6C97.9,13.3,92.8,13.3,87.4,13.3z"/>
	<path d="M147,3.5c1.1,0.4,2.5-0.9,3.1,1.1c1.1-1.1,2.4-1.6,3.8-0.9c1.5,0.7,2.1,2.1,2.2,3.7c0.1,0.8,0.1,1.5,0,2.3
		c-0.2,3.7-2.4,5.1-6,3.8c0,1.3,0,2.5,0,3.8c-1.1,0-2,0-3.1,0C147,12.9,147,8.3,147,3.5z M150,8.6c0.1,0.9,0,1.7,0.2,2.4
		c0.1,0.4,0.7,1.1,1.1,1.1c0.5,0,1.3-0.6,1.3-1c0.1-1.6,0.1-3.2,0-4.7c0-0.4-0.8-1-1.2-0.9c-0.4,0-1,0.6-1.2,1
		C150,7.1,150,7.9,150,8.6z"/>
	<path class="st0" d="M207.5,4.2c1.2-0.3,2.3-0.7,3.4-0.7c1.5,0,2.4,0.9,2.4,2.4c0.1,2.6,0,5.2,0,8c-1,0-1.9,0-3.1,0
		c0-1.8,0-3.6,0-5.4c0-0.5,0-1,0-1.5c0-0.8-0.3-1.6-1.2-1.4c-0.5,0.1-1.2,0.8-1.3,1.3c-0.2,1.3-0.1,2.7-0.1,4.1c0,0.9,0,1.8,0,2.8
		c-1.1,0-1.9,0-3.1,0c0-1.4,0-2.8,0-4.1c0-1.5-0.1-3,0-4.5c0-0.5,0.3-1.5,0.5-1.5C206,3.7,207.2,3,207.5,4.2z"/>
	<path d="M165,9.1c0-4.3,1.9-6,5.6-5.7c1.8,0.2,3.1,1.2,3.4,2.9c0.3,1.6,0.3,3.4,0,5c-0.4,2.1-2.2,3.1-4.6,3
		c-2.2-0.1-3.7-1.2-4.2-3.4C165.1,10.2,165.1,9.5,165,9.1z M171.1,8.9c-0.1-0.8,0-1.6-0.2-2.3c-0.1-0.4-0.7-1-1.1-1.1
		c-0.4,0-1.1,0.6-1.2,0.9c-0.1,1.6-0.1,3.2,0,4.8c0,0.4,0.7,1,1.1,0.9c0.4-0.1,1-0.6,1.2-1C171.1,10.4,171.1,9.6,171.1,8.9z"/>
	<path class="st0" d="M224.3,10.7c-0.4,2.1-1.4,3-3.3,3.4c-2.2,0.4-4.1-0.3-5-1.9c-1.2-2.2-1.2-4.5,0-6.7c0.9-1.6,2.7-2.3,4.8-2
		c1.8,0.3,3,1.4,3.4,3.3c0.1,0.7,0.2,1.5,0.3,2.4c-2.1,0-4,0-5.9,0c-0.3,1.2-0.4,2.2,0.7,2.8c0.5,0.2,1.7,0,1.9-0.4
		C221.9,10,223.1,10.6,224.3,10.7z M221.9,7.5c-0.5-0.9-0.7-1.6-1.2-2c-0.3-0.2-1.2-0.1-1.5,0.2c-0.4,0.4-0.5,1.2-0.8,1.9
		C219.6,7.5,220.5,7.5,221.9,7.5z"/>
	<path d="M176.9,6c-0.6-0.1-0.9-0.2-1.3-0.3c0.1-1-0.6-2.2,1.2-2.2c0.8-3.8,1.9-4.6,5.3-3.9c0,0.7,0,1.3,0,1.9
		c-1.9,0.4-1.9,0.4-2,1.9c0.3,0.1,0.5,0.1,0.8,0.1c0.3,0,0.6,0,1,0.1c0,0.7,0,1.4,0,2.2c-0.6,0.1-1.1,0.1-1.8,0.1c0,2.6,0,5.3,0,8
		c-1.2,0-2.1,0-3.2,0C176.9,11.3,176.9,8.7,176.9,6z"/>
	<path class="st0" d="M196.3,13.9c-1,0-1.9,0-2.9,0c0-4.6,0-9.2,0-13.9c1,0,1.9,0,2.9,0C196.3,4.6,196.3,9.2,196.3,13.9z"/>
	<path d="M161.3,13.9c-1.1,0-2.1,0-3.1,0c0-3.4,0-6.8,0-10.3c0.9,0,1.7,0,2.6,0c0.1,0.5,0.1,1.1,0.2,1.8c0.8-1.2,1.5-2.3,3.1-1.9
		c0,0.9,0,1.6,0,2.5c-2.6,0.9-2.8,1.2-2.8,4.1C161.3,11.3,161.3,12.6,161.3,13.9z"/>
	<path d="M186.4,13.9c-1,0-2,0-3,0c0-3.4,0-6.8,0-10.3c0.9,0,1.9,0,3,0C186.4,7.1,186.4,10.5,186.4,13.9z"/>
	<path class="st0" d="M201.9,13.9c-1.1,0-1.9,0-3,0c0-1.3,0-2.5,0-3.8c0-1.7,0.1-3.3,0-5c-0.1-1.2,0.3-1.8,1.6-1.6
		c0.5,0.1,0.9,0.1,1.5,0.1C201.9,7.1,201.9,10.5,201.9,13.9z"/>
	<path d="M183.4,2.6c0-0.9,0-1.7,0-2.7c1.1,0,2,0,3.1,0c0,0.9,0,1.8,0,2.7C185.4,2.6,184.4,2.6,183.4,2.6z"/>
	<path class="st0" d="M202,0c0,0.9,0,1.6,0,2.5c-1,0-1.9,0-2.9,0C198.5-0.1,198.9-0.5,202,0z"/>
</g>
</svg>
